<?xml version="1.0" encoding="UTF-8"?>
<svg width="1000px" height="1000px" viewBox="0 0 1000 1000" version="1.1" xmlns="http://www.w3.org/2000/svg" xmlns:xlink="http://www.w3.org/1999/xlink">
    <title>node_3</title>
    <g id="node_3" stroke="none" stroke-width="1" fill="none" fill-rule="evenodd">
        <g id="9800" transform="translate(0.000000, 188.000000)" fill-rule="nonzero">
            <rect id="Rectangle" fill="#FFFFFF" x="0" y="0" width="1000" height="625"></rect>
            <path d="M945.675,507.1 C940.793382,537.944616 914.200396,560.655676 882.971875,560.650001 L703.109375,560.56875 L545.50625,560.49375 L540.775,560.49375 L507.025,560.49375 L502.671875,560.49375 L470.484375,560.49375 L464.978125,560.49375 L420.1125,560.475 L412.203125,560.475 L375.6125,560.45625 L365.6625,560.45625 L302.6,560.425 L291.584375,560.425 L242.86875,560.403125 L232.48125,560.403125 L157.365625,560.3125 C133.202198,560.308693 111.001109,547.009176 99.596875,525.70625 C94.73125,516.6 89.484375,505.934375 84.4,494.01875 C76.275,474.940625 68.5375,452.65 63.4625,428.378125 C59.4,408.971875 57,388.3 57.425,366.990625 C57.4958333,363.165625 57.6635417,359.31875 57.928125,355.45 C58.159375,352.095833 58.4645833,348.730208 58.84375,345.353125 C60.078476,334.273519 62.1563762,323.304212 65.059375,312.540625 C68.7891411,298.741544 73.8916933,285.350747 80.290625,272.56875 C88.178125,256.790625 98.39375,241.153125 111.3625,225.896875 C118.68066,217.313333 126.518285,209.186624 134.83125,201.5625 C290.278125,58.590625 441.08125,118.734375 462.609375,118.734375 C566.465625,118.734375 541.359375,53.178125 656.375,43.15 C899.596875,21.9375 863.41875,245.9875 863.415625,245.996875 C863.4125,246.00625 859.821875,258.321875 858.728125,262.90625 C857.232292,269.06875 856.073958,274.9125 855.253125,280.4375 C855.190625,280.85625 855.128125,281.278125 855.06875,281.6875 C854.8375,283.29375 854.634375,284.865625 854.46875,286.41875 C853.21875,297.471875 853.2875,307.278125 854.421875,316.10625 C856.5375,332.6125 862.35,345.6625 870.10625,356.946875 C875.28125,364.48125 881.325,371.221875 887.7125,377.671875 C889.502083,379.480208 891.317708,381.271875 893.159375,383.046875 C895.530208,385.338542 897.919792,387.620833 900.328125,389.89375 C903.528125,392.934375 906.734375,395.984375 909.878125,399.1 C910.553125,399.7625 911.225,400.432292 911.89375,401.109375 C913.04375,402.265625 914.180208,403.434375 915.303125,404.615625 C919.991635,409.456653 924.351351,414.605627 928.353125,420.028125 C929.23125,421.21875 930.078125,422.43125 930.909375,423.6625 C931.884375,425.120833 932.827083,426.603125 933.7375,428.109375 C936.727768,433.055975 939.265159,438.262541 941.31875,443.665625 C947.53125,460.09375 949.915625,480.35625 945.675,507.1 Z" id="Path" fill="#EBF3FA"></path>
            <path d="M508.4375,425.025 L443.378125,463.71875 L175.515625,423.534375 L57.409375,366.996875 C57.4802083,363.171875 57.6479167,359.325 57.9125,355.45625 C58.14375,352.102083 58.4489583,348.736458 58.828125,345.359375 C60.062851,334.279769 62.1407512,323.310462 65.04375,312.546875 C68.7735161,298.747794 73.8760683,285.356997 80.275,272.575 C80.275,272.575 159.846875,239.5375 175.515625,249.45 C191.184375,259.3625 235.953125,319.809375 256.096875,316.825 C276.240625,313.840625 291.165625,287.25 318.028125,325.540625 C344.890625,363.83125 359.8125,377.478125 384.434375,362.821875 C409.05625,348.165625 421.740625,327.271875 442.63125,339.95625 C463.521875,352.640625 508.4375,425.025 508.4375,425.025 Z" id="Path" fill="#80B4FF" opacity="0.2"></path>
            <path d="M887.7,377.659375 C828.61875,397.5 640.978125,459.64375 596.740625,463.4 C544.04375,467.875 536.646875,424.278125 536.646875,424.278125 C536.646875,424.278125 595.590625,339.21875 603.053125,340.7125 C610.515625,342.20625 630.865625,375.625 638.70625,370.028125 C646.546875,364.43125 679.33125,250.653125 691.865625,249.459375 C703.615625,248.340625 720.81875,275.353125 725.69375,270.878125 C728.40625,268.378125 740.63125,242.8375 753.240625,220.646875 C763.303125,202.93125 773.615625,187.35625 779.5125,187.38122 C785.409375,187.40625 793.50625,200.234375 802.0125,216.49375 L802.0125,216.49375 C816.3875,243.934375 831.996875,281.15625 840.65625,283.18125 C844.928125,284.18125 849.93125,282.63125 855.234375,280.415625 C855.171875,280.834375 855.109375,281.25625 855.05,281.665625 C854.81875,283.271875 854.615625,284.84375 854.45,286.396875 C853.2,297.45 853.26875,307.25625 854.403125,316.084375 C856.51875,332.590625 862.33125,345.640625 870.0875,356.925 C875.26875,364.46875 881.3125,371.209375 887.7,377.659375 Z" id="Path" fill="#80B4FF" opacity="0.4"></path>
            <path d="M596.7375,425.86875 C596.7375,425.86875 617.9875,387.375 621.359375,393.53125 C624.73125,399.6875 634.228125,402.746875 638.70625,396.18125 C643.184375,389.615625 697.584375,330.675 698.921875,345.315625 C700.259375,359.95625 677.875,396.371875 686.828125,398.028125 C695.78125,399.684375 745.025,350.44375 762.371875,360.528125 C779.71875,370.6125 799.303125,352.134375 817.76875,352.69375 C836.234375,353.253125 835.686113,395.840625 835.686113,395.840625 L686.26875,441.665625 L615.7625,445 L582.1875,441.09375 L596.7375,425.86875 Z" id="Path" fill="#80B4FF" opacity="0.4"></path>
            <path d="M900.3125,389.88125 C900.3125,389.88125 657.475,440.4875 632.1375,439.096875 C632.1375,439.096875 650.05625,421.284375 672.45,420.546875 C694.84375,419.809375 704.53125,398.671875 730.646875,396.171875 C756.7625,393.671875 772.43125,399.275 783.25,393.671875 C794.06875,388.06875 806.375,360.840625 831.75,361.5875 C853.509375,362.23125 861.81875,361.771875 870.1,356.91875 C876.725,366.565625 884.7875,374.915625 893.153125,383.01875 C895.521875,385.322917 897.908333,387.610417 900.3125,389.88125 Z" id="Path" fill="#80B4FF"></path>
            <path d="M415.640625,416.53125 L57.915625,355.48125 C57.915625,355.472926 57.915625,355.464574 57.915625,355.45625 C58.146875,352.102083 58.4520833,348.736458 58.83125,345.359375 C60.065976,334.279769 62.1438762,323.310462 65.046875,312.546875 C65.046875,312.546875 103.19375,304.865625 121.6625,312.546875 C140.13125,320.228125 138.45,332.546875 153,334.21875 C167.55,335.890625 180.740625,334.496875 191.684375,343.203125 C202.628125,351.909375 219.04375,358.125 235.70625,357.13125 C252.36875,356.1375 287.934375,352.15625 301.865625,363.35 C315.796875,374.54375 343.4,398.9125 367.275,398.540625 C391.15,398.16875 404.390625,404.521875 408.3125,410.103125 C412.10625,415.5125 415.440625,416.478125 415.640625,416.53125 Z" id="Path" fill="#AFCDFB"></path>
            <path d="M947.7,487.1875 C947.415841,493.858951 946.739674,500.507924 945.675,507.1 C940.793382,537.944616 914.200396,560.655676 882.971875,560.650001 L703.109375,560.56875 L545.50625,560.49375 L540.775,560.49375 L507.025,560.49375 L502.671875,560.49375 L470.484375,560.49375 L464.978125,560.49375 L420.1125,560.475 L412.203125,560.475 L375.6125,560.45625 L365.6625,560.45625 L302.6,560.425 L291.584375,560.425 L240.09375,560.403125 L232.48125,560.403125 L157.365625,560.3125 C133.202198,560.308693 111.001109,547.009176 99.596875,525.70625 C86.9375,502.01875 71.71875,467.8125 63.4375,428.384375 C61.7625,420.403125 60.371875,412.2125 59.346875,403.85 C57.5886767,389.80222 56.993946,375.633205 57.56875,361.4875 C57.8,356.147917 58.2166667,350.771875 58.81875,345.359375 C94.0375,344.88125 187.06875,347.61875 297.7875,382.809375 C439.271875,427.78125 569.778125,456.684375 664.91875,433.178125 C744.053125,413.628125 842.334375,389.428125 900.30625,389.88125 C903.50625,392.921875 906.7125,395.971875 909.85625,399.0875 C910.53125,399.75 911.203125,400.419792 911.871875,401.096875 C913.021875,402.253125 914.158333,403.421875 915.28125,404.603125 C919.96976,409.444153 924.329476,414.593127 928.33125,420.015625 C929.209375,421.20625 930.05625,422.41875 930.8875,423.65 C931.8625,425.108333 932.805208,426.590625 933.715625,428.096875 C936.705893,433.043475 939.243284,438.250041 941.296875,443.653125 C945.88125,455.74375 948.384375,469.903125 947.7,487.1875 Z" id="Path" fill="#BFE2A8"></path>
            <path d="M480.3125,201.13125 C480.3125,201.13125 491.25,181.003125 517.384375,183.240625 C517.384375,183.240625 555.33125,149.690625 595.796875,178.765625 C595.796875,178.765625 638.8125,171.578125 670.671875,185.015625 C691.921875,193.978125 698.925,203.38125 698.925,203.38125 L480.3125,201.13125 Z" id="Path" fill="#F8FCFF" opacity="0.8"></path>
            <path d="M334.578125,247.8875 C334.578125,247.8875 343.8375,233.728125 365.978125,235.3 C365.978125,235.3 398.121875,211.7 432.396875,232.153125 C432.396875,232.153125 468.834375,227.0875 495.81875,236.528125 C513.809375,242.834375 519.753125,249.446875 519.753125,249.446875 L334.578125,247.8875 Z" id="Path" fill="#F8FCFF" opacity="0.8"></path>
            <path d="M219.709375,183.565625 C219.709375,183.565625 226.30625,169.40625 242.075,170.978125 C242.075,170.978125 264.96875,147.38125 289.384375,167.834375 C289.384375,167.834375 315.3375,162.765625 334.55625,172.209375 C347.36875,178.5125 351.603125,185.125 351.603125,185.125 L219.709375,183.565625 Z" id="Path" fill="#F8FCFF" opacity="0.8"></path>
            <path d="M440.975,432.353125 C440.975,432.353125 302.109375,416.578125 245.9,396.18125 C189.690625,375.784375 185.60625,381.778125 199.2125,392.58125 C212.81875,403.384375 291.290625,428.921875 258.771875,431.825 C226.253125,434.728125 167.725,426.2 145.66875,448.765625 C123.6125,471.33125 88.9625,491.625 145.66875,496.00625 C202.375,500.3875 367.96875,469.278125 367.96875,469.278125 L440.975,432.353125 Z" id="Path" fill="#DAED8E"></path>
            <path d="M594.096875,407.865625 C594.096875,407.865625 614.24375,456.3625 616.48125,457.865625 C618.71875,459.36875 626.95625,461.246875 627.515625,463.490625 C628.075,465.734375 640.953125,495.384375 640.953125,495.384375 L591.7125,504.896875 L552.540625,481.95625 L594.096875,407.865625 Z" id="Path" fill="#A36F4B"></path>
            <path d="M882.971875,560.65 L734.39375,560.584375 L703.109375,560.584375 L545.50625,560.509375 L540.775,560.509375 L507.025,560.509375 L502.671875,560.509375 L470.484375,560.509375 L464.978125,560.509375 L420.1125,560.490625 L412.203125,560.490625 L375.6125,560.471875 L365.6625,560.471875 L302.6,560.440625 L291.584375,560.440625 L240.09375,560.41875 L232.48125,560.41875 L157.365625,560.3125 C147.926764,560.310203 138.599672,558.269968 130.021875,554.33125 C170.20625,535.61875 292.58125,479.571875 389.65625,445.165625 C507.546875,403.38125 574.7,380.996875 594.096875,407.859375 C613.49375,434.721875 542.615625,491.425 581.4125,492.91875 C620.209375,494.4125 713.478125,482.471875 748.546875,489.1875 C783.546875,495.8875 779.9,509.28125 789.53125,510.075 L789.584375,510.075 C799.271875,510.821875 873.9,505.6 882.853125,519.028125 C891.80625,532.45625 882.971875,560.65 882.971875,560.65 Z" id="Path" fill="#D8A987"></path>
            <path d="M802.01875,216.49375 L802.01875,216.49375 C802.01875,216.49375 789.090625,206.4 786.10625,203.36875 C783.121875,200.3375 779.390625,207.653125 777.15,210.7875 C774.909375,213.921875 774.65,204.171875 774.65,201.1875 C774.65,198.203125 753.225,220.659375 753.225,220.659375 L753.225,220.659375 C763.2875,202.94375 773.6,187.36875 779.496875,187.39372 C785.39375,187.41875 793.50625,200.234375 802.01875,216.49375 Z" id="Path" fill="#F8FCFF" opacity="0.8"></path>
            <path d="M672.571875,284.203125 C672.571875,284.203125 687.8625,243.715625 695.821875,244.95625 C703.78125,246.196875 714.659375,264.565625 714.659375,264.565625 C714.659375,264.565625 703.59375,255.09375 701.534375,258.2625 C699.475,261.43125 699.109375,267.7 695.565625,264.565625 C692.021875,261.43125 689.784375,260.984375 687.91875,264.565625 C686.053125,268.146875 672.571875,284.203125 672.571875,284.203125 Z" id="Path" fill="#F8FCFF"></path>
            <path d="M279.6,516.053125 C269.9125,527.99375 210.209375,531.721875 212.075,540.303125 C213.571875,547.178125 241.165625,552.1375 242.86875,560.359375 L232.48125,560.359375 L157.365625,560.3125 C133.202198,560.308693 111.001109,547.009176 99.596875,525.70625 C94.73125,516.6 89.484375,505.934375 84.4,494.01875 C84.4,494.01875 109.85625,468.378125 172.525,478.39375 C235.19375,488.409375 243.8875,462.4125 273.253125,470.51875 C302.61875,478.625 310.1875,471.71875 321.00625,478.39375 C331.825,485.06875 279.975,496.28125 274.375,501.503125 C268.775,506.725 289.3,504.115625 279.6,516.053125 Z" id="Path" fill="#509B67"></path>
            <path d="M117.05625,481.065625 C117.05625,481.065625 104.24375,450.40625 116.3625,443.728125 C128.48125,437.05 115,470.053125 120.178125,482.296875 C122.740625,488.359375 117.05625,481.065625 117.05625,481.065625 Z" id="Path" fill="#509B67"></path>
            <path d="M111.15,488.5875 C111.15,488.5875 95.3625,469.2125 102.7125,461.675 C110.0625,454.1375 107.3125,481.05 113.65,488.784375 C116.815625,492.609375 111.15,488.5875 111.15,488.5875 Z" id="Path" fill="#509B67"></path>
            <path d="M122.775,486.825 C122.775,486.825 121.28125,456.39375 133.95625,454.325 C146.63125,452.25625 124.459375,476.68125 125.109375,488.853125 C125.43125,494.86875 122.775,486.825 122.775,486.825 Z" id="Path" fill="#509B67"></path>
            <path d="M167.03125,517.528125 C167.03125,517.528125 165.2875,499.16875 171.953125,497.590625 C178.61875,496.0125 170.4875,516.709375 170.4875,516.709375 L167.03125,517.528125 Z" id="Path" fill="#82B378"></path>
            <path d="M172.00625,517.990625 C172.00625,517.990625 179.146875,503.55 185.553125,505.5625 C191.959375,507.575 175.328125,519.034375 175.328125,519.034375 L172.00625,517.990625 Z" id="Path" fill="#82B378"></path>
            <path d="M158.23125,518.540625 C158.23125,518.540625 165.44375,514.5625 171.66875,515.55625 C177.89375,516.55 178.88125,517.546875 181.61875,518.540625 C184.35625,519.534375 187.7125,521.525 186.21875,522.396866 C184.725,523.26875 172.290625,521.65 169.30625,522.396866 C166.321875,523.14375 150.696875,521.26875 158.23125,518.540625 Z" id="Path" fill="#82B378"></path>
            <path d="M299.584375,543.4375 C299.584375,543.4375 307.953125,504.459375 319.609375,513.6 C331.265625,522.740625 306.4125,531.728125 299.584375,543.4375 Z" id="Path" fill="#82B378"></path>
            <path d="M296.159375,545.571875 C296.159375,545.571875 292.334375,517.25 300.071875,515.865625 C307.809375,514.48125 296.25,537 296.159375,545.571875 Z" id="Path" fill="#82B378"></path>
            <path d="M288.275,543.340625 C288.275,543.340625 294.959375,540.096875 299.8375,540.396875 C304.715625,540.696875 317.79375,542.246875 316.596875,544.834375 C315.4,547.421875 302.296875,545.184375 298.978125,545.60625 C295.659375,546.028125 284.6875,545.7875 288.275,543.340625 Z" id="Path" fill="#82B378"></path>
            <path d="M739.834375,515.834375 C739.834375,515.834375 739.5875,502.396875 745.803125,500.040625 C752.01875,497.684375 740.45625,512.353125 739.834375,515.834375 Z" id="Path" fill="#509B67"></path>
            <path d="M744.828125,513.921875 C744.828125,513.921875 749.575,496.93125 758.2875,496.3 C767,495.66875 746.921875,509.775 744.828125,513.921875 Z" id="Path" fill="#509B67"></path>
            <path d="M162.859375,455.815625 C165.359375,456.828125 174.296875,456.009375 174.5875,455.296875 C174.878125,454.584375 169.03125,447.771875 166.528125,446.75625 C164.909265,446.100891 163.063747,446.358965 161.68676,447.433259 C160.309772,448.507554 159.610512,450.234856 159.852385,451.96451 C160.094257,453.694163 161.240515,455.163391 162.859375,455.81875 L162.859375,455.815625 Z" id="Path" fill="#509B67"></path>
            <path d="M185.40625,460.08125 C184,462.3875 183.365625,471.33125 184.025,471.740625 C184.684375,472.15 192.346875,467.471875 193.753125,465.178125 C194.661919,463.687099 194.706227,461.824499 193.869359,460.291947 C193.03249,458.759395 191.441584,457.789723 189.695921,457.748197 C187.950258,457.706671 186.315044,458.599599 185.40625,460.090625 L185.40625,460.08125 Z" id="Path" fill="#509B67"></path>
            <path d="M173.359375,477.603125 C175.93125,478.425 184.78125,476.925 185.015625,476.190625 C185.25,475.45625 178.903125,469.1125 176.33125,468.290625 C174.667732,467.759751 172.84736,468.156679 171.55585,469.33189 C170.264341,470.507102 169.697904,472.282054 170.069913,473.98814 C170.441921,475.694226 171.695857,477.072251 173.359375,477.603125 L173.359375,477.603125 Z" id="Path" fill="#509B67"></path>
            <path d="M186.378125,486.26875 C186.378125,486.065625 185.378125,465.8 174.284375,455.33125 L174.51875,455.08125 C185.71875,465.640625 186.70625,486.040625 186.70625,486.246875 L186.378125,486.26875 Z" id="Path" fill="#509B67"></path>
            <path d="M257.29375,439.140625 C254.865625,440.753125 245.228125,441.8125 244.76875,441.121875 C244.309375,440.43125 249.025,431.959375 251.45625,430.346875 C253.882673,428.790969 257.108608,429.469412 258.70276,431.87088 C260.296912,434.272349 259.669662,437.508628 257.29375,439.140625 Z" id="Path" fill="#509B67"></path>
            <path d="M234.353125,448.521875 C236.334375,450.65625 238.9375,459.996875 238.328125,460.5625 C237.71875,461.128125 228.596875,457.840625 226.615625,455.703125 C225.331702,454.320954 224.882687,452.35881 225.437721,450.555814 C225.992755,448.752818 227.467514,447.382888 229.306471,446.962064 C231.145428,446.54124 233.069202,447.133454 234.353125,448.515625 L234.353125,448.521875 Z" id="Path" fill="#509B67"></path>
            <path d="M250.88125,464.465625 C248.334375,465.8875 238.646875,466.2125 238.240625,465.484375 C237.834375,464.75625 243.18125,456.675 245.740625,455.25 C248.28545,453.827004 251.502004,454.736425 252.925,457.28125 C254.347996,459.826075 253.438575,463.042629 250.89375,464.465625 L250.88125,464.465625 Z" id="Path" fill="#509B67"></path>
            <path d="M238.971875,476.44375 C238.9375,476.225 235.6125,454.56875 245.096875,441.103125 L244.784375,440.8875 C235.2125,454.478125 238.5625,476.284375 238.596875,476.5125 L238.971875,476.44375 Z" id="Path" fill="#509B67"></path>
            <path d="M209.303125,488.003125 L208.590625,487.890625 C205.778125,451.615625 194.7125,425.5875 194.55625,425.234375 L195.203125,424.953125 C195.359375,425.3125 206.515625,451.5125 209.303125,488.003125 Z" id="Path" fill="#509B67"></path>
            <path d="M187.040625,421.58125 C188.40625,423.14375 194.803125,425.61875 195.24375,425.228125 C195.684375,424.8375 194.009375,418.184375 192.64375,416.6375 C191.801023,415.498586 190.388365,414.931856 188.992165,415.172557 C187.595964,415.413257 186.454618,416.42029 186.041895,417.775639 C185.629171,419.130989 186.015542,420.603234 187.040625,421.58125 Z" id="Path" fill="#FFFFFF"></path>
            <path d="M196.84375,416.1875 C195.609375,417.84375 194.4875,424.625 194.96875,424.965625 C195.45,425.30625 201.609375,422.309375 202.84375,420.653125 C203.876324,418.997686 203.466991,416.827044 201.90242,415.661365 C200.33785,414.495686 198.14083,414.724474 196.85,416.1875 L196.84375,416.1875 Z" id="Path" fill="#FFFFFF"></path>
            <path d="M204.2,423.3875 C202.209375,422.84375 195.496875,424.278125 195.340625,424.846875 C195.184375,425.415625 200.24375,430.05625 202.234375,430.6 C203.562436,431.080027 205.047562,430.773278 206.07676,429.806363 C207.105959,428.839449 207.504701,427.376337 207.108405,426.020932 C206.712109,424.665527 205.587978,423.647676 204.2,423.3875 L204.2,423.3875 Z" id="Path" fill="#FFFFFF"></path>
            <path d="M199.665625,432.365625 C199.465625,430.309375 195.746875,424.553125 195.159375,424.6 C194.571875,424.646875 192.034375,431.028125 192.225,433.084375 C192.56994,435.006733 194.332603,436.342481 196.276614,436.154693 C198.220626,435.966905 199.695021,434.318464 199.665625,432.365625 L199.665625,432.365625 Z" id="Path" fill="#FFFFFF"></path>
            <path d="M189.484375,431.925 C191.3125,430.9625 195.25,425.340625 194.975,424.81875 C194.7,424.296875 187.8375,424.346875 186.009375,425.30625 C184.358552,426.351091 183.786504,428.488323 184.694678,430.218101 C185.602852,431.947878 187.686933,432.69058 189.484375,431.925 Z" id="Path" fill="#FFFFFF"></path>
            <path d="M193.75,424.625 C193.828278,424.133145 194.195163,423.736889 194.679547,423.621039 C195.163931,423.505189 195.670403,423.692564 195.962754,424.095776 C196.255105,424.498988 196.27575,425.038615 196.01506,425.462985 C195.75437,425.887355 195.263695,426.112878 194.771875,426.034375 C194.100592,425.927226 193.643158,425.296332 193.75,424.625 L193.75,424.625 Z" id="Path" fill="#F99746"></path>
            <path d="M209.1,450.915625 C207.06875,453.415625 204.875,463.89375 205.590625,464.471875 C206.30625,465.05 216.1125,460.76875 218.14375,458.271875 C219.457818,456.656365 219.810202,454.462525 219.068163,452.516754 C218.326123,450.570983 216.602394,449.168889 214.546287,448.838629 C212.49018,448.508368 210.414067,449.300114 209.1,450.915625 L209.1,450.915625 Z" id="Path" fill="#509B67"></path>
            <path d="M274.465625,490.390625 L275.178125,490.275 C277.990625,454.003125 289.059375,427.971875 289.215625,427.61875 L288.565625,427.340625 C288.4125,427.696875 277.253125,453.9 274.465625,490.390625 Z" id="Path" fill="#509B67"></path>
            <path d="M296.728125,423.96875 C295.3625,425.53125 288.965625,428.00625 288.525,427.615625 C288.084375,427.225 289.775,420.56875 291.125,419.021875 C291.970046,417.888356 293.380797,417.326476 294.773754,417.568633 C296.16671,417.810791 297.305064,418.815818 297.717981,420.168026 C298.130898,421.520235 297.748181,422.989743 296.728125,423.96875 Z" id="Path" fill="#FFFFFF"></path>
            <path d="M286.928125,418.575 C288.159375,420.228125 289.28125,427.0125 288.803125,427.353125 C288.325,427.69375 282.159375,424.696875 280.928125,423.040625 C279.99274,421.98046 279.73313,420.484319 280.256668,419.171002 C280.780207,417.857684 281.997893,416.95045 283.406098,416.824529 C284.814302,416.698607 286.173632,417.375405 286.921875,418.575 L286.928125,418.575 Z" id="Path" fill="#FFFFFF"></path>
            <path d="M279.56875,425.775 C281.559375,425.23125 288.271875,426.665625 288.428125,427.234375 C288.584375,427.803125 283.525,432.44375 281.534375,432.984375 C279.619246,433.334 277.755065,432.159992 277.24297,430.28177 C276.730876,428.403548 277.741192,426.445813 279.56875,425.775 L279.56875,425.775 Z" id="Path" fill="#FFFFFF"></path>
            <path d="M284.103125,434.75 C284.303125,432.696875 288.021875,426.9375 288.609375,426.984375 C289.196875,427.03125 291.734375,433.415625 291.54375,435.46875 C291.522489,436.881172 290.709327,438.161812 289.440076,438.781804 C288.170826,439.401797 286.66086,439.255937 285.53375,438.404461 C284.40664,437.552985 283.853641,436.140376 284.103125,434.75 L284.103125,434.75 Z" id="Path" fill="#FFFFFF"></path>
            <path d="M294.284375,434.309375 C292.459375,433.35 288.521875,427.728125 288.79375,427.20625 C289.065625,426.684375 295.93125,426.73125 297.759375,427.690625 C299.058621,428.24401 299.936812,429.480377 300.031456,430.88939 C300.1261,432.298403 299.421147,433.641111 298.207581,434.363282 C296.994015,435.085454 295.477641,435.064618 294.284375,434.309375 L294.284375,434.309375 Z" id="Path" fill="#FFFFFF"></path>
            <path d="M290,427.0125 C289.921722,426.520645 289.554837,426.124389 289.070453,426.008539 C288.586069,425.892689 288.079597,426.080064 287.787246,426.483276 C287.494895,426.886488 287.47425,427.426115 287.73494,427.850485 C287.99563,428.274855 288.486305,428.500378 288.978125,428.421875 C289.649408,428.314726 290.106842,427.683832 290,427.0125 L290,427.0125 Z" id="Path" fill="#F99746"></path>
            <path d="M274.66875,453.303125 C276.7,455.803125 278.89375,466.278125 278.18125,466.859375 C277.46875,467.440625 267.65625,463.15625 265.625,460.659375 C263.593628,458.162012 263.971387,454.490747 266.46875,452.459375 C268.966113,450.428003 272.637378,450.805762 274.66875,453.303125 Z" id="Path" fill="#509B67"></path>
            <path d="M682.303125,479.290625 C685.578125,480.734375 697.465625,480.009375 697.878125,479.075 C698.290625,478.140625 690.815625,468.871875 687.5375,467.425 C684.258309,465.979567 680.428245,467.466122 678.982813,470.745313 C677.53738,474.024503 679.023934,477.854567 682.303125,479.3 L682.303125,479.290625 Z" id="Path" fill="#509B67"></path>
            <path d="M712.028125,485.859375 C710.071875,488.859375 708.86875,500.70625 709.725,501.2625 C710.58125,501.81875 720.934375,495.95 722.890625,492.94375 C724.820391,489.945197 723.966899,485.95113 720.980119,484.003192 C717.993338,482.055254 713.994163,482.884478 712.028125,485.859375 L712.028125,485.859375 Z" id="Path" fill="#509B67"></path>
            <path d="M695.34375,508.603125 C698.721875,509.796875 710.515625,508.16875 710.85625,507.20625 C711.196875,506.24375 703.04375,497.56875 699.6625,496.378125 C697.478714,495.606654 695.049238,496.058822 693.289232,497.564301 C691.529226,499.06978 690.706077,501.399852 691.129857,503.676801 C691.553637,505.953751 693.159964,507.831655 695.34375,508.603125 L695.34375,508.603125 Z" id="Path" fill="#509B67"></path>
            <path d="M712.253125,520.625 C712.253125,520.353125 711.7625,493.4375 697.475,479.121875 L697.7875,478.809375 C712.20625,493.265625 712.696875,520.35625 712.7,520.628125 L712.253125,520.625 Z" id="Path" fill="#509B67"></path>
            <path d="M734.284375,521.421875 L733.659375,521.325 C731.20625,489.578125 721.509375,466.796875 721.375,466.4875 L721.940625,466.24375 C722.08125,466.5625 731.846875,489.4875 734.284375,521.421875 Z" id="Path" fill="#509B67"></path>
            <path d="M714.8,463.29375 C715.996875,464.646875 721.59375,466.825 721.9875,466.484375 C722.38125,466.14375 720.90625,460.31875 719.7125,458.965625 C718.507588,457.652973 716.473844,457.545804 715.137647,458.724551 C713.801449,459.903299 713.654127,461.934529 714.80625,463.29375 L714.8,463.29375 Z" id="Path" fill="#FFFFFF"></path>
            <path d="M723.378125,458.571875 C722.3,460.021875 721.31875,465.946875 721.734375,466.25625 C722.15,466.565625 727.546875,463.93125 728.609375,462.48125 C729.326713,461.545055 729.484675,460.295242 729.022821,459.210011 C728.560967,458.124781 727.550785,457.372108 726.378788,457.239979 C725.206791,457.107849 724.054385,457.616715 723.3625,458.571875 L723.378125,458.571875 Z" id="Path" fill="#FFFFFF"></path>
            <path d="M729.81875,464.871875 C728.075,464.4 722.2,465.653125 722.065625,466.15 C721.93125,466.646875 726.35625,470.709375 728.1,471.184375 C729.236888,471.519737 730.466249,471.213993 731.313597,470.385148 C732.160945,469.556303 732.493752,468.333992 732.183569,467.189977 C731.873385,466.045963 730.968725,465.159174 729.81875,464.871875 L729.81875,464.871875 Z" id="Path" fill="#FFFFFF"></path>
            <path d="M725.85,472.73125 C725.675,470.93125 722.4125,465.884375 721.90625,465.934375 C721.4,465.984375 719.165625,471.559375 719.3375,473.359375 C719.543361,475.128754 721.126849,476.408335 722.900016,476.238166 C724.673183,476.067996 725.984409,474.510611 725.85,472.734375 L725.85,472.73125 Z" id="Path" fill="#FFFFFF"></path>
            <path d="M716.940625,472.34375 C718.540625,471.503125 721.984375,466.584375 721.74375,466.128125 C721.503125,465.671875 715.49375,465.7125 713.9,466.553125 C712.300963,467.39277 711.685355,469.369713 712.525,470.96875 C713.364645,472.567787 715.341588,473.183395 716.940625,472.34375 Z" id="Path" fill="#FFFFFF"></path>
            <path d="M720.68125,465.95625 C720.7831,465.371834 721.337953,464.979497 721.922895,465.07828 C722.507837,465.177064 722.903079,465.72985 722.807366,466.315302 C722.711652,466.900755 722.160946,467.298891 721.575,467.20625 C721.289273,467.161941 721.033441,467.004398 720.865269,466.769192 C720.697097,466.533986 720.630765,466.240951 720.68125,465.95625 Z" id="Path" fill="#F99746"></path>
            <path d="M734.10625,488.965625 C732.328125,491.153125 730.409375,500.321875 731.034375,500.840625 C731.659375,501.359375 740.24375,497.6 742.021875,495.415625 C743.171824,494.001635 743.480065,492.081564 742.830488,490.378684 C742.180911,488.675804 740.672201,487.448823 738.872676,487.159934 C737.07315,486.871044 735.256199,487.564135 734.10625,488.978125 L734.10625,488.965625 Z" id="Path" fill="#509B67"></path>
            <path d="M882.971875,560.65 L734.39375,560.584375 C735.14375,553.503125 748.59375,549.925 747.346875,542.9375 C745.746875,533.984375 679.55625,530.625 706.11875,519.1875 C732.209375,507.96875 787.55,509.990625 789.53125,510.065625 L789.584375,510.065625 C799.271875,510.8125 873.9,505.590625 882.853125,519.01875 C891.80625,532.446875 882.971875,560.65 882.971875,560.65 Z" id="Path" fill="#509B67"></path>
            <path d="M442.5,479.29375 C442.5,479.29375 443.4125,493.5375 446.16875,493.734375 C446.5375,493.7625 460.146875,493.734375 460.146875,493.734375 L477.521875,493.596875 C477.521875,493.596875 477.4,489.409375 472.31875,488.534375 C467.2375,487.659375 458.728125,484.1125 455.6375,477.40625 C452.38125,470.346875 442.5,479.29375 442.5,479.29375 Z" id="Path" fill="#AF5919"></path>
            <path d="M530.915625,467.221875 C530.915625,467.221875 533.56875,481.24375 536.328125,481.103125 C536.696875,481.084375 550.2,479.3875 550.2,479.3875 L567.428125,477.121875 C567.428125,477.121875 566.803125,472.98125 561.64375,472.746875 C556.484375,472.5125 547.615625,470.021875 543.725,463.74375 C539.634375,457.13125 530.915625,467.221875 530.915625,467.221875 Z" id="Path" fill="#AF5919"></path>
            <path d="M500.10625,326.078125 C500.10625,326.078125 495.625,355.140625 478.784375,406.78125 C461.94375,458.421875 459.6875,480.759375 459.6875,480.759375 L441.5,480.2875 C441.5,480.2875 441.221875,423.903125 448.978125,397.940625 C456.734375,371.978125 450.459375,304.40625 450.459375,304.40625 L500.10625,326.078125 Z" id="Path" fill="#163560"></path>
            <path d="M505.040625,299.6875 C505.040625,299.6875 529.8,349.6875 536.096875,389.26875 C542.39375,428.85 547.346875,465.065625 547.346875,465.065625 C547.346875,465.065625 541.2625,467.303125 529.846875,468.290625 C529.846875,468.290625 510.553125,410.821875 508.50625,396.509375 C506.459375,382.196875 448.9625,324.978125 453.45,310.85625 C457.9375,296.734375 505.040625,299.6875 505.040625,299.6875 Z" id="Path" fill="#1C468A"></path>
            <path d="M469.165625,203.2375 C469.165625,203.2375 443.596875,227.784375 442.371875,237.890625 C441.146875,247.996875 454.778125,263.771875 454.778125,263.771875 L469.165625,203.2375 Z" id="Path" fill="#ED7D2B"></path>
            <path d="M473.55625,203.45625 L483.24375,209.775 L497.215625,207.140625 C497.01875,206.0125 496.084375,201.3375 495.2375,197.10625 C495.184375,196.85625 495.134375,196.60625 495.084375,196.3625 C494.359375,192.759375 493.73125,189.665625 493.73125,189.665625 L480.665625,183.934375 L475.79375,181.796875 C475.79375,181.875 476.18125,185.796875 476.23125,186.36875 C477.159375,196.5375 473.55625,203.45625 473.55625,203.45625 Z" id="Path" fill="#FFB27D"></path>
            <path d="M493.6125,200.2125 C493.34375,200.1 476.775,195.25 474.975,195.8375 C473.175,196.425 472.121875,199.91875 472.121875,199.91875 L499.21875,205.98125 C499.21875,205.98125 497.078125,201.6625 493.6125,200.2125 Z" id="Path" fill="#ED7D2B"></path>
            <path d="M449.26875,311.40625 C452.103125,324.21875 498.815625,325.621875 510.83125,313.975 C512.196875,312.646875 512.253125,306.475 511.71875,298.175 C510.671875,281.940625 507.375,257.525 507.221875,245.05 C507.146875,239.025 506.303125,232.8625 505.190625,227.26875 C503.744738,220.035341 501.748303,212.922975 499.21875,205.99375 C499.21875,205.99375 476.3875,198.66875 472.121875,199.93125 C451.5625,206.015625 446.434375,298.609375 449.26875,311.40625 Z" id="Path" fill="#F99746"></path>
            <path d="M511.71875,298.175 C510.671875,281.940625 510.10625,255.134375 509.953125,242.65625 C509.878125,236.63125 506.303125,232.859375 505.190625,227.265625 L491.459375,224.871875 C491.459375,224.871875 478.159375,279.709375 511.71875,298.175 Z" id="Path" fill="#ED7D2B"></path>
            <path d="M487.078125,278.96875 C487.078125,278.96875 502.628125,265.38125 508.44375,256.78125 L512.8375,259.75 C512.8375,259.75 500.578125,280.26875 488.859375,285.6875 C477.140625,291.10625 487.078125,278.96875 487.078125,278.96875 Z" id="Path" fill="#163560"></path>
            <path d="M477.20625,186.5625 C480.08125,191.4125 490.771875,195.5875 495.23125,197.121875 C495.178125,196.871875 495.128125,196.621875 495.078125,196.378125 C494.353125,192.775 493.725,189.68125 493.725,189.68125 L480.659375,183.95 C477.775,183.903125 476.01875,184.55 477.20625,186.5625 Z" id="Path" fill="#FCA56B"></path>
            <path d="M498.159375,188.2625 C498.159375,188.2625 478.328125,197.84375 472.553125,185.4 C466.778125,172.95625 460.325,165.815625 472.740625,159.171875 C485.15625,152.528125 489.840625,156.128125 492.78125,159.796875 C495.721875,163.465625 503.16875,185.446875 498.159375,188.2625 Z" id="Path" fill="#FFB27D"></path>
            <path d="M491.778125,158.678125 C491.778125,158.678125 492.715625,174.01875 489.475,173.828125 C486.234375,173.6375 483.33125,173.571875 484.475,178.06875 C485.61875,182.565625 490.725,187.1875 481.209375,189.43125 C471.69375,191.675 454.1,168.85 456.05,163.74375 C461.671875,149.00625 500.365625,140.44375 491.778125,158.678125 Z" id="Path" fill="#163560"></path>
            <path d="M459.84375,256.90625 C459.84375,256.90625 457.471875,257.19375 457.25625,259.425 C457.040625,261.65625 455.540625,288.81875 456.9,289.5375 C458.259375,290.25625 463.903125,289.965625 464.23125,289.5375 C464.559375,289.109375 465.79375,259.3 464.959375,257.503125 C464.959375,257.5 462.20625,256.434375 459.84375,256.90625 Z" id="Path" fill="#163560"></path>
            <path d="M511.853125,287.89375 C511.853125,287.89375 515.128125,290.325 515.815625,292.959375 C516.93125,297.228125 516.21875,301.221875 512.03125,302.825 C510.4875,303.41875 510.275,299.75 509.13125,298.175 C507.9875,296.6 503.903125,295.725 504.8375,293.328125 L507.6,286.2375 L511.853125,287.89375 Z" id="Path" fill="#FFB27D"></path>
            <path d="M506.403125,289.309375 C506.403125,289.309375 503.8125,292.15625 503.546875,293.996875 C503.28125,295.8375 503.171875,298.6625 503.1125,299.871875 C503.053125,301.08125 503.6625,302.08125 504.78125,300.1125 C505.9,298.14375 506.8625,295.521875 507.621875,295.525 C508.38125,295.528125 506.403125,289.309375 506.403125,289.309375 Z" id="Path" fill="#FFB27D"></path>
            <path d="M488.459375,202.753125 C488.459375,202.753125 504.709375,205.628125 517.265625,224.03125 C529.821875,242.434375 534.453125,254.203125 532.16875,260.85 C529.884375,267.496875 518.45,288.10625 516.14375,290.896875 C514.16875,293.28125 508.44375,293.1125 504.7,291.5 C504.7,291.5 511.95625,260.834375 509.0375,257.521875 C507.7875,256.10625 491.696875,242.521875 489.15,249.103125 C484.934375,260 488.459375,202.753125 488.459375,202.753125 Z" id="Path" fill="#F99746"></path>
            <path d="M502.35,209.015625 C502.35,209.015625 499.684375,204.309375 493.36875,203.36875 C487.053125,202.428125 483.2375,209.775 483.2375,209.775 L487.959375,211.56875 C487.959375,211.56875 490.996875,205.990625 493.74375,205.990625 C496.876772,205.968751 499.919675,207.038297 502.35,209.015625 L502.35,209.015625 Z" id="Path" fill="#163560"></path>
            <path d="M492.115625,231.578125 C492.115625,231.578125 485.553125,231.490625 477.115625,231.29375 C462.296875,230.953125 441.753125,230.2875 441.225,229.2125 C440.4,227.521875 441.496875,208.71875 446.5625,207.359375 C447.172711,207.214173 447.79336,207.117 448.41875,207.06875 C456.6,206.284375 481.60625,207.76875 487.378125,209.625 C493.690625,211.6625 492.115625,231.578125 492.115625,231.578125 Z" id="Path" fill="#163560"></path>
            <path d="M477.1125,231.29375 C462.29375,230.953125 441.75,230.2875 441.221875,229.2125 C440.396875,227.521875 441.49375,208.71875 446.559375,207.359375 C447.169586,207.214173 447.790235,207.117 448.415625,207.06875 C458.103125,207.4875 468.821875,208.4875 472.35,209.625 C478.225,211.51875 477.278125,228.85625 477.1125,231.29375 Z" id="Path" fill="#1C468A"></path>
            <path d="M492.115625,231.578125 C492.115625,231.578125 441.35625,226.534375 432.565625,229.46875 C423.775,232.403125 423.775,292.28125 426.521875,296.409375 C429.26875,300.5375 479.134375,304.35625 486.209375,302.16875 C493.284375,299.98125 492.115625,231.578125 492.115625,231.578125 Z" id="Path" fill="#1C468A"></path>
            <path d="M477.121875,230.25625 C477.121875,230.25625 470.171875,230.88125 469.534375,235.834375 C468.896875,240.7875 464.509375,300.984375 468.4875,302.578125 C472.465625,304.171875 489.01875,303.515625 489.98125,302.578125 C490.94375,301.640625 494.525,235.559375 492.115625,231.578125 C492.115625,231.578125 484.04375,229.2125 477.121875,230.25625 Z" id="Path" fill="#163560"></path>
            <path d="M445.646875,213.846875 C445.646875,213.846875 444.028125,222.2 446.115625,223.471875 C448.203125,224.74375 453.284375,225.10625 454.553125,223.615625 C455.821875,222.125 455.540625,214.015625 455.540625,214.015625 L445.646875,213.846875 Z" id="Path" fill="#163560"></path>
            <path d="M445.646875,213.846875 C445.646875,213.846875 446.35625,217.225 450.315625,217.284375 C452.565339,217.374562 454.63893,216.072049 455.534375,214.00625 C455.534375,214.00625 450.159375,211.584375 445.646875,213.846875 Z" id="Path" fill="#29589B"></path>
            <path d="M449.6,215.975 C449.606961,215.567777 449.942702,215.243289 450.349926,215.250211 C450.757149,215.257132 451.08167,215.592843 451.074787,216.000067 C451.067904,216.407291 450.732225,216.731844 450.325,216.725 C450.129394,216.721713 449.943108,216.640841 449.807138,216.500183 C449.671168,216.359524 449.596657,216.170605 449.6,215.975 L449.6,215.975 Z" id="Path" fill="#F99746"></path>
            <path d="M460.596875,214.8625 C460.596875,214.8625 458.446875,223.09375 460.45,224.5 C462.453125,225.90625 467.496875,226.5875 468.853125,225.18125 C470.209375,223.775 470.453125,215.665625 470.453125,215.665625 L460.596875,214.8625 Z" id="Path" fill="#163560"></path>
            <path d="M460.596875,214.8625 C460.596875,214.8625 461.0875,218.28125 465.034375,218.6125 C467.273677,218.849235 469.427613,217.68283 470.453125,215.678125 C470.453125,215.678125 465.246875,212.896875 460.596875,214.8625 Z" id="Path" fill="#29589B"></path>
            <path d="M464.40625,217.240625 C464.439042,216.834178 464.795115,216.531271 465.201562,216.564062 C465.60801,216.596854 465.910917,216.952928 465.878125,217.359375 C465.845333,217.765822 465.48926,218.068729 465.082813,218.035937 C464.676365,218.003146 464.373458,217.647072 464.40625,217.240625 L464.40625,217.240625 Z" id="Path" fill="#F99746"></path>
            <path d="M431.603125,236.521875 C431.603125,236.521875 429.415625,244.28125 430.64375,246.309375 C431.871875,248.3375 459.7625,249.709375 461.546875,248.059375 C463.33125,246.409375 463.609375,237.484375 463.609375,237.484375 L431.603125,236.521875 Z" id="Path" fill="#163560"></path>
            <path d="M431.603125,236.521875 C431.603125,236.521875 435.415625,241.328125 445.040625,241.465625 C454.665625,241.603125 463.603125,237.484375 463.603125,237.484375 C463.603125,237.484375 441.08125,233.5 431.603125,236.521875 Z" id="Path" fill="#29589B"></path>
            <circle id="Oval" fill="#F99746" cx="444.378125" cy="239.646875" r="1"></circle>
            <path d="M455.975,256.5875 C455.975,256.5875 432.94375,255.60625 431.6,256.5875 C430.25625,257.56875 429.746875,289.3 430.778125,290.846875 C431.809375,292.39375 455.090625,293.1125 455.090625,293.1125 L455.975,256.5875 Z" id="Path" fill="#29589B"></path>
            <path d="M947.7,487.1875 C933.5875,486.5 912.346875,485.409375 894.04375,484.21875 C863.453125,482.228125 876.884375,472.778125 891.059375,459.34375 C905.234375,445.909375 847.0375,453.378125 803.7625,456.375 C760.4875,459.371875 695.571875,457.85625 718.69375,439.128125 C741.815625,420.4 909.865625,399.0875 909.865625,399.0875 C910.540625,399.75 911.2125,400.419792 911.88125,401.096875 C913.03125,402.253125 914.167708,403.421875 915.290625,404.603125 C919.979135,409.444153 924.338851,414.593127 928.340625,420.015625 C929.21875,421.20625 930.065625,422.41875 930.896875,423.65 C931.871875,425.108333 932.814583,426.590625 933.725,428.096875 C936.715268,433.043475 939.252659,438.250041 941.30625,443.653125 C945.88125,455.74375 948.384375,469.903125 947.7,487.1875 Z" id="Path" fill="#DAED8E"></path>
            <path d="M137.875,384.734375 C123.659375,384.734375 100.6875,385.48125 107.69375,389.95625 C114.7,394.43125 120.675,401.15 96.796875,401.89375 C73.19375,402.634375 59.6625,403.825 59.35625,403.85 C57.5980517,389.80222 57.003321,375.633205 57.578125,361.4875 C57.578125,361.4875 79.6875,355.1875 93.11875,361.4875 C106.55,367.7875 116.196875,362.7375 126.64375,369.4375 C137.090625,376.1375 159.1,376.9 163.578125,380.63125 C168.05625,384.3625 152.090625,384.734375 137.875,384.734375 Z" id="Path" fill="#82B378"></path>
            <path d="M687.11875,538.1625 L688.165625,520.36875 C688.165625,520.36875 679.2125,512.91875 677.93125,512.40625 C676.65,511.89375 657.325,508.9375 657.325,508.9375 L658.159375,525.65 L664.2125,537.79375 L687.11875,538.1625 Z" id="Path" fill="#EDC5A2"></path>
            <path d="M643.096875,537.575 C643.096875,537.575 641.846875,524.61875 642.5125,523.2 C643.178125,521.78125 655.309375,508.5125 657.325,508.934375 C659.340625,509.35625 670.45,513.490625 672.390625,515.059375 C674.33125,516.628125 678.853125,528.890625 678.778125,530.165625 L678.315625,538.015625 L643.096875,537.575 Z" id="Path" fill="#F9DDBF"></path>
            <path d="M657.1875,542.328125 L657.325,534.6875 C657.348147,533.491576 656.796054,532.357171 655.840625,531.6375 C653.775,530.075 650.2625,527.475 649.590625,527.240625 C648.990625,527.028125 643.171875,526.325 638.896875,525.828125 C637.777767,525.702539 636.661466,526.086532 635.856436,526.873996 C635.051405,527.66146 634.642881,528.769019 634.74375,529.890625 L635.36875,536.80625 C635.41496,537.319409 635.567124,537.817402 635.815625,538.26875 L639.159375,544.34375 C639.834265,545.564222 641.130707,546.309345 642.525,546.278125 L653.53125,546.00625 C655.538011,545.956423 657.149644,544.335147 657.1875,542.328125 L657.1875,542.328125 Z" id="Path" fill="#EDC5A2"></path>
            <path d="M628.125,546.7 C626.190487,546.749192 624.536229,545.318299 624.30625,543.396875 C623.971875,540.5625 623.60625,536.88125 623.875,536.24375 C624.321875,535.18125 636.00625,525.690625 637.5,525.93125 C638.99375,526.171875 644.128125,528.2625 645.60625,529.36875 C647.084375,530.475 650.775,539.34375 650.756321,540.284375 L650.71875,542.503125 C650.676447,544.498267 649.07903,546.110793 647.084375,546.171875 L628.125,546.7 Z" id="Path" fill="#F9DDBF"></path>
            <path d="M348.98125,496.315625 L348.865625,489.85625 C348.844748,488.845274 349.309528,487.885504 350.115625,487.275 C351.8625,485.959375 354.834375,483.75625 355.396875,483.559375 C355.903125,483.378125 360.821875,482.784375 364.4375,482.365625 C365.385357,482.25466 366.332581,482.578086 367.014637,483.245578 C367.696693,483.91307 368.040484,484.853094 367.95,485.803125 L367.41875,491.65 C367.379447,492.088127 367.250757,492.513549 367.040625,492.9 L364.228125,498.034375 C363.658662,499.068273 362.56128,499.699479 361.38125,499.671875 L352.075,499.440625 C350.369782,499.403662 349.001074,498.021129 348.98125,496.315625 L348.98125,496.315625 Z" id="Path" fill="#EDC5A2"></path>
            <path d="M373.565625,500.015625 C375.203263,500.062206 376.604817,498.849245 376.79375,497.221875 C377.078125,494.821875 377.384375,491.709375 377.159375,491.171875 C376.78125,490.271875 366.9,482.25 365.6375,482.453125 C364.375,482.65625 360.03125,484.425 358.78125,485.35 C357.53125,486.275 354.40625,493.7875 354.424916,494.584375 L354.459375,496.459375 C354.4904,498.148092 355.842933,499.514385 357.53125,499.5625 L373.565625,500.015625 Z" id="Path" fill="#F9DDBF"></path>
            <path d="M322.5625,501.065625 L322.5,497.553125 C322.487507,497.00292 322.741168,496.48047 323.18125,496.15 C324.11875,495.434375 325.746875,494.234375 326.053125,494.128125 C326.359375,494.021875 329.003125,493.70625 330.971875,493.478125 C331.487952,493.419194 332.003053,493.596383 332.373666,493.960324 C332.74428,494.324266 332.930796,494.836063 332.88125,495.353125 L332.590625,498.534375 C332.569426,498.770255 332.499175,498.999103 332.384375,499.20625 L330.846875,502 C330.535319,502.567431 329.931369,502.911682 329.284375,502.890625 L324.221875,502.765625 C323.303124,502.733916 322.571982,501.984874 322.5625,501.065625 Z" id="Path" fill="#EDC5A2"></path>
            <path d="M335.9375,503.075 C336.828064,503.100448 337.590442,502.441168 337.69375,501.55625 C337.846875,500.253125 338.00625,498.559375 337.890625,498.265625 C337.684375,497.778125 332.3125,493.415625 331.640625,493.525 C330.96875,493.634375 328.59375,494.596875 327.9125,495.0875 C327.23125,495.578125 325.5375,499.675 325.543733,500.10625 L325.5625,501.128125 C325.580456,502.04653 326.316177,502.789127 327.234375,502.815625 L335.9375,503.075 Z" id="Path" fill="#F9DDBF"></path>
            <path d="M584.928125,512.48125 L584.865625,508.971875 C584.852114,508.420577 585.105883,507.896741 585.546875,507.565625 C586.484375,506.85 588.1125,505.653125 588.41875,505.54375 C588.725,505.434375 591.36875,505.125 593.334375,504.896875 C593.851233,504.835707 594.367969,505.012039 594.739619,505.376401 C595.111269,505.740764 595.297797,506.253907 595.246875,506.771875 L594.95625,509.95 C594.935026,510.186863 594.86479,510.416727 594.75,510.625 L593.2125,513.41875 C592.900944,513.986181 592.296994,514.330432 591.65,514.309375 L586.5875,514.184375 C585.668249,514.151035 584.937537,513.401057 584.928125,512.48125 Z" id="Path" fill="#EDC5A2"></path>
            <path d="M598.29375,514.49375 C599.184314,514.519198 599.946692,513.859918 600.05,512.975 C600.20625,511.671875 600.3625,509.978125 600.25,509.684375 C600.04375,509.196875 594.671875,504.834375 594,504.94375 C593.328125,505.053125 590.953125,506.015625 590.271875,506.50625 C589.590625,506.996875 587.896875,511.096875 587.903108,511.528125 L587.921875,512.546875 C587.93825,513.465948 588.674869,514.209451 589.59375,514.234375 L598.29375,514.49375 Z" id="Path" fill="#F9DDBF"></path>
            <path d="M251.978125,549.49375 L251.915625,545.984375 C251.90521,545.433753 252.158332,544.911253 252.596875,544.578125 C253.534375,543.865625 255.1625,542.665625 255.46875,542.55625 C255.775,542.446875 258.421875,542.1375 260.3875,541.909375 C260.904126,541.84802 261.420686,542.024408 261.791889,542.388929 C262.163093,542.753449 262.348835,543.266719 262.296875,543.784375 L262.00625,546.965625 C261.984601,547.201417 261.914378,547.430174 261.8,547.6375 L260.2625,550.43125 C259.950944,550.998681 259.346994,551.342932 258.7,551.321875 L253.640625,551.196875 C252.720148,551.165164 251.987608,550.414724 251.978125,549.49375 L251.978125,549.49375 Z" id="Path" fill="#EDC5A2"></path>
            <path d="M265.346875,551.50625 C266.236906,551.530203 266.998415,550.871675 267.103125,549.9875 C267.25625,548.684375 267.415625,546.990625 267.3,546.696875 C267.09375,546.209375 261.721875,541.846875 261.034375,541.95625 C260.346875,542.065625 257.9875,543.028125 257.30625,543.51875 C256.625,544.009375 254.93125,548.109375 254.937483,548.540625 L254.95625,549.559375 C254.974135,550.478333 255.709424,551.221867 256.628125,551.25 L265.346875,551.50625 Z" id="Path" fill="#F9DDBF"></path>
            <path d="M332.93125,490.8125 L332.8875,488.365625 C332.880044,487.982326 333.056653,487.618652 333.3625,487.3875 C334.002316,486.880717 334.670029,486.410187 335.3625,485.978125 C335.55625,485.9125 337.41875,485.6875 338.8,485.528125 C339.158158,485.486164 339.516145,485.607923 339.774447,485.859555 C340.032748,486.111187 340.163829,486.465867 340.13125,486.825 L339.93125,489.040625 C339.914747,489.204832 339.865891,489.364147 339.7875,489.509375 L338.715625,491.453125 C338.501604,491.846874 338.085545,492.088067 337.6375,492.078125 L334.1125,491.990625 C333.465514,491.980621 332.942968,491.459457 332.93125,490.8125 Z" id="Path" fill="#EDC5A2"></path>
            <path d="M342.24375,492.2125 C342.864091,492.229544 343.394566,491.769619 343.465625,491.153125 C343.571875,490.246875 343.690625,489.065625 343.603125,488.8625 C343.4625,488.521875 339.71875,485.484375 339.228125,485.559375 C338.316607,485.806538 337.442966,486.1766 336.63125,486.659375 C336.159375,487.009375 334.975,489.853125 334.981225,490.15625 L334.981225,490.865625 C334.992676,491.504938 335.504596,492.022363 336.14375,492.040625 L342.24375,492.2125 Z" id="Path" fill="#F9DDBF"></path>
        </g>
    </g>
</svg>