<?xml version="1.0" encoding="UTF-8"?>
<svg width="1000px" height="1000px" viewBox="0 0 1000 1000" version="1.1" xmlns="http://www.w3.org/2000/svg" xmlns:xlink="http://www.w3.org/1999/xlink">
    <title>node_1</title>
    <g id="node_1" stroke="none" stroke-width="1" fill="none" fill-rule="evenodd">
        <g id="5283" transform="translate(-49.000000, 226.000000)" fill-rule="nonzero">
            <rect id="Rectangle" fill="#FFFFFF" x="0" y="0" width="1098" height="549"></rect>
            <path d="M980.599781,499.246875 L766.935844,499.181681 L585.498206,499.130212 L560.508412,499.130212 L137.346075,499.003256 C137.346075,499.003256 115.04295,443.83905 121.013325,384.186769 C121.758384,376.619367 122.983521,369.106951 124.681331,361.694925 C124.681331,361.670906 124.681331,361.650319 124.698487,361.629731 C125.762175,357.024994 127.037456,352.438556 128.524331,347.870419 C134.851556,328.5765 145.241381,309.889913 161.43345,293.5503 C259.604944,194.476387 386.46855,277.289606 434.073712,274.877437 C481.678875,272.465269 484.358681,177.395625 626.587425,166.027894 C705.478725,159.73155 790.165406,174.465338 817.5159,240.6267 C828.290025,266.7042 830.166919,300.752494 819.276131,344.651906 C812.938613,370.183838 818.373713,385.802888 830.458575,395.921644 C855.558169,416.941481 909.377325,414.223931 946.050525,427.310719 C973.387294,437.0589 991.216069,455.584219 980.599781,499.246875 Z" id="Path" fill="#EBF2F9"></path>
            <path d="M830.458575,395.921644 L213.708544,476.048194 C208.112175,455.7798 205.236787,433.768331 206.681344,410.312306 L817.5159,240.6267 C828.290025,266.7042 830.166919,300.752494 819.276131,344.651906 C812.938613,370.183837 818.373713,385.802888 830.458575,395.921644 Z" id="Path" fill="#F8FBFF"></path>
            <path d="M572.545237,271.755 L121.013325,384.169612 C121.758384,376.60221 122.983521,369.089795 124.681331,361.677769 C124.681331,361.65375 124.681331,361.633162 124.698487,361.612575 C125.762175,357.007837 127.037456,352.4214 128.524331,347.853262 L572.545237,271.755 Z" id="Path" fill="#F8FBFF"></path>
            <path d="M560.511844,499.119919 L137.346075,498.9861 C137.346075,498.9861 109.106887,429.160163 124.681331,361.677769 C124.681331,361.65375 124.681331,361.633162 124.698487,361.612575 C164.649772,359.798524 204.295513,369.360144 239.027738,389.1861 C310.442344,429.798375 427.695019,400.08375 461.630081,422.863819 C495.565144,445.643888 503.357512,469.233731 528.594356,473.303194 C550.609256,476.837381 558.789356,494.642138 560.504981,499.126781 C560.511844,499.116488 560.511844,499.116488 560.511844,499.119919 Z" id="Path" fill="#C9E0F2"></path>
            <path d="M731.243981,225.388519 C731.243981,218.869626 736.528588,213.585019 743.047481,213.585019 C749.566374,213.585019 754.850981,218.869626 754.850981,225.388519 C754.850981,231.907412 749.566374,237.192019 743.047481,237.192019 C736.528588,237.192019 731.243981,231.907412 731.243981,225.388519 Z" id="Path" fill="#F8FBFF"></path>
            <path d="M689.784187,465.418181 C701.501906,461.743313 716.575388,455.766075 708.378131,451.278 C699.597562,446.47425 688.401394,456.671925 682.331512,463.421194 C682.019269,463.369725 681.703594,463.318256 681.384487,463.27365 C679.821649,463.050397 678.245214,462.935747 676.666519,462.930525 C688.236694,444.401775 701.141625,419.696775 690.151331,416.557181 C678.310087,413.173969 669.821175,443.193975 665.63505,464.220675 C654.061444,466.73235 641.6163,472.349306 628.635881,476.0928 C624.051731,459.420356 613.500638,434.574675 591.389662,435.106519 C568.170394,435.682969 597.157594,462.66975 616.688269,478.844663 C612.323462,479.581133 607.894035,479.86286 603.471094,479.685319 C575.0775,478.364288 557.2899,497.610169 557.2899,497.610169 L709.77465,497.610169 C715.501406,488.541375 706.8375,471.796875 689.784187,465.418181 Z" id="Path" fill="#A8D29F"></path>
            <path d="M431.359594,91.147725 C431.359594,91.147725 420.722719,79.5535312 417.445875,79.1658 C414.169031,78.7780687 400.63275,85.2597 399.860719,87.8159812 C399.088687,90.3722625 414.74205,85.2597 415.610156,87.8159812 C416.478263,90.3722625 417.445875,92.1119062 421.889344,92.3074875 C426.332813,92.5030687 430.199831,95.0113125 430.199831,95.0113125 L431.359594,91.147725 Z" id="Path" fill="#FFB27D"></path>
            <path d="M444.110119,497.620463 C440.733769,495.561712 442.655269,480.18285 442.655269,480.18285 C442.655269,480.18285 458.390981,467.593594 460.552669,477.231975 C462.714356,486.870356 475.502625,491.197162 482.780306,492.377513 C487.807088,493.190719 489.361444,495.973463 489.841819,497.620463 L444.110119,497.620463 Z" id="Path" fill="#233862"></path>
            <path d="M441.289631,487.848262 C437.257912,486.324787 414.803812,432.426713 415.737112,414.923906 C415.850344,412.865156 415.445456,395.818706 414.803812,392.277656 C414.306281,389.532656 413.637187,386.324438 412.837706,382.773094 C411.609319,377.365444 410.092706,371.141156 408.377081,364.460513 C403.604212,345.695006 397.524037,323.381588 393.327619,305.621438 C400.855781,288.739688 410.483869,273.964725 419.350219,268.907063 C425.663719,269.679094 431.750756,270.845719 436.259419,271.820194 C439.12649,273.465246 441.888278,275.287338 444.528731,277.275881 C445.214981,280.775756 446.244356,286.615744 447.07815,294.133613 C447.609994,299.050594 448.056056,304.695 448.265362,310.864387 C449.764819,354.647137 442.1097,402.221419 461.62665,479.874037 C462.189375,482.063175 447.534506,490.2021 441.289631,487.848262 Z" id="Path" fill="#2B478B"></path>
            <path d="M447.091875,294.157631 C443.83905,310.435481 436.012369,345.224925 408.390806,364.474238 C403.617938,345.708731 397.537763,323.395312 393.341344,305.635163 C400.869506,288.753413 410.497594,273.97845 419.363944,268.920788 C425.677444,269.692819 431.764481,270.859444 436.273144,271.833919 C439.140215,273.478971 441.902003,275.301063 444.542456,277.289606 C445.225275,280.799775 446.247788,286.639763 447.091875,294.157631 Z" id="Path" fill="#233862"></path>
            <path d="M413.1225,141.024375 L413.1225,143.769375 C413.1225,143.769375 413.86365,152.309756 403.3503,153.5553 C392.83695,154.800844 384.866156,150.226988 385.164675,143.635556 C386.1117,138.533288 387.151369,135.029981 387.223425,130.809544 C387.245101,129.096661 387.119975,127.385069 386.849419,125.69355 L407.224181,125.288663 L413.228869,126.27 L413.1225,141.024375 Z" id="Path" fill="#FFB27D"></path>
            <path d="M413.194556,126.24255 L413.115637,140.996925 C410.816558,142.073167 408.307836,142.627406 405.769331,142.619981 C396.40545,142.619981 390.352725,135.757406 387.189112,130.768369 C387.210789,129.055486 387.085663,127.343894 386.815106,125.652375 L407.189869,125.247487 L413.194556,126.24255 Z" id="Path" fill="#E8945B"></path>
            <path d="M414.381769,133.417294 C414.381769,133.417294 388.287113,138.691125 385.253888,122.389256 C382.220663,106.087388 376.809581,95.786775 393.341344,91.7310375 C409.873106,87.6753 414.271969,93.2922563 416.615513,98.4871688 C418.959056,103.682081 421.093294,131.626181 414.381769,133.417294 Z" id="Path" fill="#FFB27D"></path>
            <path d="M395.592244,497.620463 C395.592244,497.620463 394.168275,489.8178 391.907081,485.298844 C389.645888,480.779887 375.279244,483.658706 375.279244,483.658706 C375.279244,483.658706 372.403856,486.122344 371.786231,497.620463 L395.592244,497.620463 Z" id="Path" fill="#233862"></path>
            <path d="M423.759375,277.560675 C423.759375,277.560675 409.454494,341.296144 404.866913,370.067175 C403.151288,380.831006 399.575925,415.3185 399.033788,426.202425 C398.265188,441.142088 393.341344,486.863494 393.341344,486.863494 C393.341344,486.863494 385.030856,481.613681 372.702375,486.520369 C372.702375,486.520369 369.590231,466.025512 367.606969,423.100575 C367.027088,410.51475 369.459844,391.615425 369.164756,385.476919 C367.713338,355.281919 358.068094,277.238137 365.733506,272.245669 C373.398919,267.2532 423.759375,277.560675 423.759375,277.560675 Z" id="Path" fill="#2B478B"></path>
            <path d="M421.700625,86.3782875 C421.700625,86.3782875 414.422944,85.8155625 405.841387,82.0857938 C398.872519,79.056 390.085087,82.391175 387.230287,83.8940625 C387.329393,83.2784872 387.563769,82.6925478 387.916538,82.1784375 C387.916538,82.1784375 386.636681,83.0877188 386.444531,84.3572813 C386.314144,84.4533563 386.255813,84.5219813 386.290125,84.5425688 C386.324438,84.5631563 384.838706,84.2783625 383.88825,84.696975 C383.88825,84.696975 384.540188,84.6043313 384.773513,85.0229437 C384.800167,85.0679703 384.835093,85.1075527 384.87645,85.1396062 C374.009681,90.3894187 373.007756,107.566256 376.5042,111.539644 C380.710913,116.319375 385.768575,127.086637 385.768575,127.086637 C385.768575,127.086637 387.611156,124.544081 386.845988,120.337369 C386.080819,116.130656 389.714513,116.130656 394.305525,114.216019 C398.896538,112.301381 395.070694,106.948631 399.085256,103.699238 C403.099819,100.449844 417.826744,102.36105 417.638025,99.8733938 C423.107437,97.8832688 421.700625,86.9375813 421.700625,86.3782875 Z" id="Path" fill="#233862"></path>
            <path d="M428.655769,85.50675 C428.655769,85.50675 426.459769,86.398875 425.138737,89.5075875 C423.450562,93.4844062 424.826494,95.6529563 424.826494,95.6529563 C424.826494,95.6529563 452.444625,120.701081 450.64665,125.261213 C449.709919,127.6425 428.312644,140.190581 419.422275,145.323731 C415.764562,145.01835 412.937212,145.042369 412.844569,145.042369 L412.844569,145.042369 C412.844569,145.042369 406.795275,163.471613 385.137225,143.604675 C381.331969,149.139281 351.8541,162.730463 356.963231,186.186488 C358.168744,191.697075 359.215275,196.902281 360.102825,201.802106 C366.189862,235.033763 365.712919,254.643356 364.525706,265.455225 C363.6027,273.892669 360.102825,274.740188 363.235556,276.987656 C363.235556,276.987656 369.326025,279.732656 380.734931,282.079631 C389.206687,283.833 400.6053,285.390788 414.611662,285.481907 C436.8942,285.620681 445.324781,277.93125 445.324781,277.93125 C451.226531,272.159887 439.55685,249.451875 440.49015,233.074519 C440.970525,224.667956 440.445544,195.890063 440.363194,182.666025 L440.363194,182.666025 L440.38035,182.645438 C441.4509,181.475381 474.044344,145.611956 480.460781,125.257781 C480.460781,125.257781 480.460781,125.257781 480.460781,125.257781 C480.767864,124.287758 481.02102,123.30148 481.219088,122.303475 C483.161175,112.287656 428.655769,85.50675 428.655769,85.50675 Z" id="Path" fill="#EE9849"></path>
            <path d="M364.522275,265.462087 C365.709487,254.646788 366.186431,235.040625 360.099394,201.808969 C360.515719,200.484506 360.928612,199.216088 361.338075,198.003713 C363.184087,192.513712 371.024494,192.798506 372.472481,198.394875 C376.97085,215.78445 381.019725,245.334375 364.522275,265.462087 Z" id="Path" fill="#E58638"></path>
            <path d="M357.879375,247.293619 C357.879375,247.293619 371.42595,239.103225 375.6258,240.142894 C379.82565,241.182562 388.932187,245.138794 388.366031,247.557825 C387.799875,249.976856 377.221331,251.630719 375.382181,251.3322 C373.543031,251.033681 370.578431,251.380238 369.360338,252.423338 C368.142244,253.466437 358.555331,253.850737 357.385275,251.050838 C356.215219,248.250938 357.879375,247.293619 357.879375,247.293619 Z" id="Path" fill="#FFB27D"></path>
            <path d="M385.130363,143.608106 C385.130363,143.608106 368.523113,144.812475 359.502356,150.100031 C353.669231,153.531281 319.833675,207.429356 319.833675,215.362406 C319.833675,223.295456 355.357406,251.438569 355.357406,251.438569 C355.357406,251.438569 361.952269,253.631137 362.185594,243.131512 C362.185594,243.131512 344.463188,216.933919 345.396488,213.900694 C345.983231,211.992919 372.101906,191.041706 372.101906,191.041706 L385.130363,143.608106 Z" id="Path" fill="#EE9849"></path>
            <path d="M480.450488,125.271506 C474.03405,145.625681 441.440606,181.489106 440.370056,182.659162 L440.3529,182.67975 L440.3529,182.67975 L440.3529,182.67975 C440.260256,182.336625 437.570156,172.060031 443.986594,164.724019 C450.523125,157.257619 473.052713,138.543581 480.450488,125.271506 Z" id="Path" fill="#E58638"></path>
            <path d="M378.868331,146.679075 C378.799706,145.241381 385.614169,143.247825 385.614169,143.247825 C385.614169,143.247825 393.416831,154.063125 406.26,154.255275 C406.26,154.255275 402.598856,161.381981 398.282344,163.227994 C398.289206,163.227994 379.293806,155.222888 378.868331,146.679075 Z" id="Path" fill="#E58638"></path>
            <path d="M406.26,154.001362 C406.26,154.001362 413.071031,149.966213 413.09505,145.587938 C413.09505,145.587938 417.490481,145.038938 419.411981,147.173175 C419.411981,147.173175 421.024669,154.670456 418.883569,159.028144 C418.890431,159.028144 409.08735,157.532119 406.26,154.001362 Z" id="Path" fill="#E58638"></path>
            <path d="M429.935625,255.604106 C429.80562,259.138603 428.363321,262.497851 425.890181,265.026319 L422.006006,269.01 C421.53851,269.485113 420.894603,269.744594 420.228304,269.727273 C419.562006,269.708155 418.933241,269.413876 418.492406,268.913925 L413.098481,262.737675 C411.651936,261.085916 410.897413,258.94032 410.991694,256.746713 C411.211294,251.860613 411.605887,242.445263 411.835781,233.369606 C412.027931,226.013006 412.117144,218.872575 411.924994,214.542337 C411.314231,200.728125 406.26,156.787538 406.26,156.787538 L409.58145,156.787538 C409.58145,156.787538 418.705144,173.466844 424.232888,196.521413 C425.668312,202.461298 426.749914,208.481145 427.471988,214.5492 C427.471988,214.5492 430.522369,239.635069 429.935625,255.604106 Z" id="Path" fill="#C65447"></path>
            <path d="M401.644969,153.352856 L410.878463,151.1397 C410.878463,151.1397 412.086263,151.246069 412.05195,152.748956 C412.017638,154.251844 409.451063,158.647275 408.315319,158.997263 C407.179575,159.34725 399.462694,156.396375 401.644969,153.352856 Z" id="Path" fill="#BA4C43"></path>
            <path d="M378.868331,144.57915 C378.799706,143.138025 385.614169,141.1479 385.614169,141.1479 C385.614169,141.1479 393.416831,151.9632 406.266863,152.151919 C406.266863,152.151919 402.605719,159.278625 398.289206,161.124639 C398.289206,161.128069 379.293806,153.122962 378.868331,144.57915 Z" id="Path" fill="#EE9849"></path>
            <path d="M406.26,152.15535 C406.26,152.15535 413.071031,148.116769 413.09505,143.741925 C413.09505,143.741925 417.490481,143.192925 419.411981,145.323731 C419.411981,145.323731 421.024669,152.824444 418.883569,157.1787 C418.890431,157.1787 409.08735,155.686106 406.26,152.15535 Z" id="Path" fill="#EE9849"></path>
            <path d="M429.935625,255.604106 C429.80562,259.138603 428.363321,262.497851 425.890181,265.026319 L422.006006,269.01 C421.53851,269.485113 420.894603,269.744594 420.228304,269.726374 C419.562006,269.708155 418.933241,269.413876 418.492406,268.913925 L413.098481,262.737675 C411.651936,261.085916 410.897413,258.94032 410.991694,256.746713 C411.211294,251.860613 411.605887,242.445263 411.835781,233.369606 C420.458513,222.602344 423.426544,208.191094 424.243181,196.51455 C425.678606,202.454435 426.760208,208.474283 427.482281,214.542338 C427.482281,214.542338 430.522369,239.635069 429.935625,255.604106 Z" id="Path" fill="#BA4C43"></path>
            <rect id="Rectangle" fill="#233862" x="284.810906" y="448.4781" width="67.6711125" height="49.1423625" rx="16.32"></rect>
            <rect id="Rectangle" fill="#2B478B" x="279.677756" y="448.4781" width="67.6711125" height="49.1423625" rx="16.32"></rect>
            <path d="M301.174537,448.464375 C304.787644,444.1959 309.491888,442.514588 312.497662,442.514588 C319.861125,442.514588 323.971763,448.241344 324.126169,448.464375 L322.331625,448.584469 C322.201237,448.39575 319.288106,444.731175 312.926569,444.731175 C310.311956,444.731175 306.475819,444.731175 303.319069,448.464375 C303.123487,448.718287 301.129931,448.529569 301.174537,448.464375 Z" id="Path" fill="#233862"></path>
            <rect id="Rectangle" fill="#233862" x="279.677756" y="450.032456" width="67.6711125" height="22.2276375" rx="11.1138187"></rect>
            <rect id="Rectangle" fill="#2B478B" x="279.677756" y="448.4781" width="67.6711125" height="22.2276375" rx="11.1138187"></rect>
            <path d="M310.7889,466.368638 C310.7889,465.421124 311.557011,464.653013 312.504525,464.653013 C313.452039,464.653013 314.22015,465.421124 314.22015,466.368638 C314.22015,467.316151 313.452039,468.084263 312.504525,468.084263 C311.557011,468.084263 310.7889,467.316151 310.7889,466.368638 L310.7889,466.368638 Z" id="Path" fill="#233862"></path>
            <path d="M980.599781,499.246875 L766.935844,499.181681 L766.654481,499.130213 C766.654481,499.130213 785.471456,473.207119 822.124069,473.299763 C858.776681,473.392406 858.313462,454.376419 906.31665,442.535175 C920.532319,439.031869 934.054875,433.449225 946.050525,427.321013 C973.387294,437.0589 991.216069,455.584219 980.599781,499.246875 Z" id="Path" fill="#A8D29F"></path>
            <path d="M659.928881,190.643681 L659.928881,492.679463 C659.928881,495.397013 657.870131,497.620463 655.324144,497.620463 L650.715975,497.620463 C649.48102,497.611995 648.305666,497.088371 647.473444,496.175906 C646.588574,495.22698 646.097881,493.976939 646.100944,492.679463 L646.100944,190.643681 C646.082889,188.961487 646.908663,187.382083 648.300375,186.436969 C649.010698,185.959919 649.846603,185.702681 650.70225,185.702681 L655.310419,185.702681 C657.856406,185.702681 659.928881,187.9227 659.928881,190.643681 Z" id="Path" fill="#F1A34F"></path>
            <path d="M649.666013,189.933413 L649.666013,491.969194 C649.684371,493.649799 648.8616,495.228387 647.473444,496.175906 C646.588574,495.22698 646.097881,493.976939 646.100944,492.679463 L646.100944,190.643681 C646.082889,188.961487 646.908663,187.382083 648.300375,186.436969 C649.181563,187.387693 649.669566,188.637127 649.666013,189.933413 Z" id="Path" fill="#E58638"></path>
            <polygon id="Path" fill="#F1A34F" points="596.913975 308.513981 571.423219 325.69425 594.53955 345.962644 651.748781 342.352969 651.748781 319.2435"></polygon>
            <path d="M647.9298,322.40025 C647.669807,323.12328 647.737446,323.923674 648.115087,324.592819 C648.4788,325.097213 648.983194,324.935944 649.243969,324.249694 C649.504426,323.526725 649.43677,322.726132 649.058681,322.057125 C648.694969,321.535575 648.190575,321.696844 647.9298,322.40025 Z" id="Path" fill="#CE8032"></path>
            <path d="M647.9298,336.063487 C647.669343,336.786456 647.736998,337.587049 648.115087,338.256056 C648.4788,338.763881 648.983194,338.599181 649.243969,337.912931 C649.504301,337.191101 649.436632,336.3916 649.058681,335.723794 C648.694969,335.198812 648.190575,335.360081 647.9298,336.063487 Z" id="Path" fill="#CE8032"></path>
            <polygon id="Path" fill="#F1A34F" points="744.275869 261.824962 784.10925 278.977781 745.806206 299.318231 654.140363 296.134031 654.140363 267.520837"></polygon>
            <polygon id="Path" fill="#E89746" points="744.275869 261.824962 750.064388 261.824962 789.897769 278.977781 784.10925 278.977781"></polygon>
            <polygon id="Path" fill="#CE8032" points="745.806206 299.318231 748.8909 299.318231 789.897769 278.977781 784.10925 278.977781"></polygon>
            <path d="M660.138188,271.816762 C660.481313,272.719181 660.368081,273.97845 659.901431,274.626956 C659.434781,275.275463 658.8,275.069587 658.456875,274.156875 C658.11375,273.244163 658.226981,271.991756 658.693631,271.34325 C659.160281,270.694744 659.805356,270.910912 660.138188,271.816762 Z" id="Path" fill="#CE8032"></path>
            <path d="M660.138188,289.347019 C660.481313,290.249437 660.368081,291.508706 659.901431,292.157213 C659.434781,292.805719 658.786275,292.599844 658.453444,291.697425 C658.120612,290.795006 658.22355,289.535738 658.6902,288.8838 C659.15685,288.231862 659.805356,288.441169 660.138188,289.347019 Z" id="Path" fill="#CE8032"></path>
            <polygon id="Path" fill="#F1A34F" points="564.004856 212.209088 524.171475 229.361906 562.474519 249.702356 654.140363 246.518156 654.140363 217.904963"></polygon>
            <polygon id="Path" fill="#E89746" points="564.004856 212.209088 558.219769 212.209088 518.386388 229.361906 524.171475 229.361906"></polygon>
            <polygon id="Path" fill="#CE8032" points="562.474519 249.702356 559.389825 249.702356 518.386388 229.361906 524.171475 229.361906"></polygon>
            <path d="M648.142538,222.200888 C647.799413,223.103306 647.916075,224.362575 648.382725,225.011081 C648.849375,225.659588 649.49445,225.453713 649.830713,224.551294 C650.166975,223.648875 650.060606,222.386175 649.593956,221.737669 C649.127306,221.089162 648.4788,221.315625 648.142538,222.200888 Z" id="Path" fill="#CE8032"></path>
            <path d="M648.142538,239.731144 C647.799413,240.633562 647.916075,241.892831 648.382725,242.541337 C648.849375,243.189844 649.49445,242.983969 649.830713,242.08155 C650.166975,241.179131 650.060606,239.919863 649.593956,239.271356 C649.127306,238.62285 648.4788,238.815 648.142538,239.731144 Z" id="Path" fill="#CE8032"></path>
            <polygon id="Path" fill="#E89746" points="596.913975 308.513981 593.613113 308.513981 566.54055 325.848656 571.423219 325.848656"></polygon>
            <polygon id="Path" fill="#CE8032" points="594.53955 345.962644 590.09265 345.962644 566.54055 325.848656 571.423219 325.848656"></polygon>
            <path d="M670.184888,463.534425 L670.184888,497.620463 L635.8518,497.620463 L635.8518,463.400606 C635.851287,457.11455 640.600234,451.844197 646.852387,451.192219 C647.271,451.151044 647.696475,451.127021 648.125381,451.127021 L657.770625,451.127021 C661.06274,451.124293 664.220903,452.430401 666.549424,454.757634 C668.877945,457.084868 670.185799,460.242309 670.184888,463.534425 Z" id="Path" fill="#F1A34F"></path>
            <path d="M657.969638,463.534425 L657.969638,497.620463 L635.8518,497.620463 L635.8518,463.400606 C635.851287,457.11455 640.600234,451.844197 646.852387,451.192219 C653.17168,451.852895 657.970695,457.18069 657.969638,463.534425 L657.969638,463.534425 Z" id="Path" fill="#E58638"></path>
            <path d="M654.613875,176.1192 L654.613875,174.928556 L651.594375,174.928556 L651.594375,174.949144 C650.782808,175.020005 650.022222,175.374783 649.446412,175.951069 C648.773277,176.610812 648.395966,177.515005 648.400451,178.457529 C648.405016,179.400054 648.790992,180.300582 649.470431,180.953831 C650.134813,181.623389 651.042365,181.994829 651.985537,181.983206 L654.624169,181.983206 L654.624169,180.826875 C655.754459,179.467646 655.754459,177.495585 654.624169,176.136356 L654.613875,176.1192 Z" id="Path" fill="#E58638"></path>
            <path d="M660.440138,147.142294 C658.283025,145.312294 655.594069,144.397276 652.373269,144.397276 C650.329702,144.393868 648.315167,144.881028 646.498969,145.817831 C644.698229,146.707967 643.193247,148.099747 642.1653,149.825531 C641.564946,150.781878 641.237466,151.884156 641.218275,153.013162 C641.195339,153.774158 641.472645,154.513641 641.990306,155.071912 C642.49778,155.616587 643.215771,155.915541 643.959844,155.891981 L646.598475,155.891981 C646.598475,155.891981 646.567594,154.903781 646.564163,154.224394 L648.389588,151.760756 C649.352625,150.797719 650.631338,150.3162 652.225725,150.3162 C653.459023,150.274678 654.667228,150.67093 655.636388,151.434787 C656.551388,152.1828 657.008888,153.237337 657.008888,154.5984 C657.008888,156.158475 656.527369,157.369706 655.564331,158.232094 C654.878081,158.863444 653.682863,159.444469 651.978675,159.975169 C650.715975,160.373194 649.877606,160.780369 649.463569,161.196694 C649.013453,161.709769 648.789515,162.382822 648.842513,163.063294 L648.842513,168.042037 C648.809644,168.939769 649.09119,169.820814 649.638563,170.533125 C650.184197,171.202904 651.016407,171.572492 651.879169,171.528187 L654.5178,171.528187 L654.5178,170.018437 C654.646223,169.770833 654.74636,169.509556 654.816319,169.239544 C654.948994,168.708844 655.015331,167.347781 655.015331,165.156356 C657.739744,164.623369 659.889994,163.452169 661.466081,161.642756 C663.042169,159.833344 663.830213,157.551562 663.830213,154.797412 C663.827925,151.654387 662.6979,149.102681 660.440138,147.142294 Z" id="Path" fill="#E58638"></path>
            <path d="M666.465412,154.811138 C666.465412,157.556138 665.677369,159.837919 664.101281,161.656481 C662.525194,163.475044 660.376087,164.646244 657.653962,165.170081 C657.653962,167.359219 657.587625,168.720281 657.45495,169.253269 C657.056925,170.781319 656.076731,171.5442 654.514369,171.541913 C653.651707,171.580133 652.822337,171.205579 652.280625,170.533125 C651.733253,169.820814 651.451707,168.939769 651.484575,168.042037 L651.484575,163.077019 C651.484575,162.246656 651.69045,161.6256 652.109063,161.210419 C652.527675,160.795238 653.361469,160.386919 654.620738,159.988894 C656.315775,159.460481 657.510994,158.879456 658.206394,158.245819 C659.169431,157.385719 659.65095,156.174488 659.65095,154.612125 C659.65095,153.239625 659.19345,152.185088 658.27845,151.448513 C657.30929,150.684655 656.101086,150.288403 654.867788,150.329925 C653.266538,150.329925 651.987825,150.811444 651.03165,151.774481 L649.041525,154.46115 C648.355275,155.424187 647.542069,155.905706 646.601906,155.905706 C645.85885,155.929171 645.141951,155.630151 644.6358,155.085637 C644.118139,154.527366 643.840833,153.787883 643.863769,153.026887 C643.883314,151.89842 644.209492,150.79653 644.807363,149.839256 C645.833874,148.112695 647.33766,146.719727 649.1376,145.828125 C650.954876,144.890914 652.97062,144.403746 655.015331,144.407565 C658.233844,144.407565 660.921656,145.322588 663.078769,147.152588 C665.336531,149.106113 666.465412,151.658963 666.465412,154.811138 Z M658.11375,178.462744 C658.13682,179.401356 657.77769,180.309089 657.118687,180.97785 C656.469644,181.655456 655.565647,182.029009 654.6276,182.007225 C653.685462,182.018705 652.779028,181.647215 652.115925,180.97785 C651.434271,180.326035 651.046439,179.425416 651.041211,178.48229 C651.036089,177.539164 651.414015,176.634343 652.088475,175.975088 C652.759346,175.30049 653.676358,174.928728 654.6276,174.945713 C655.565966,174.922214 656.470629,175.296042 657.118687,175.975088 C657.770796,176.637156 658.129367,177.533585 658.11375,178.462744 L658.11375,178.462744 Z" id="Shape" fill="#F1A34F"></path>
            <path d="M86.7385687,497.829769 L247.393125,498.879731 C247.393125,498.879731 232.539244,469.027856 195.680756,475.40655 C172.420312,479.438269 164.713725,473.3478 155.140537,467.394581 C172.862944,460.686488 199.118869,449.606981 186.896756,446.927175 C175.230506,444.367462 159.336956,455.728331 149.5476,464.169206 C147.355445,463.038647 145.079523,462.078493 142.74,461.29725 C163.687781,441.739125 203.13,402.715519 185.702681,401.5935 C168.615056,400.505794 146.987887,439.103925 136.701,459.701719 C135.513788,459.464963 134.271675,459.259088 132.964369,459.087525 C127.632206,458.380688 122.670619,459.3483 118.100194,461.365875 C115.828706,452.818631 111.635719,443.043 106.059938,445.036556 C100.484156,447.030113 106.794225,456.949856 112.634213,464.392238 C96.4421437,475.152638 86.7385687,497.829769 86.7385687,497.829769 Z" id="Path" fill="#82B378"></path>
            <rect id="Rectangle" fill="#2E3552" x="76.571775" y="497.620463" width="950.106263" height="2.5185375" rx="1.25926875"></rect>
        </g>
    </g>
</svg>