<?xml version="1.0" encoding="UTF-8"?>
<svg width="200px" height="200px" viewBox="0 0 200 200" version="1.1" xmlns="http://www.w3.org/2000/svg" xmlns:xlink="http://www.w3.org/1999/xlink">
    <title>logo</title>
    <defs>
        <radialGradient cx="50.0000672%" cy="49.994611%" fx="50.0000672%" fy="49.994611%" r="1490.96837%" gradientTransform="translate(0.500001,0.499946),scale(0.032208,1.000000),translate(-0.500001,-0.499946)" id="radialGradient-1">
            <stop stop-color="#E6DDB9" offset="0%"></stop>
            <stop stop-color="#FFFFFF" offset="100%"></stop>
        </radialGradient>
        <radialGradient cx="55.0404552%" cy="58.814392%" fx="55.0404552%" fy="58.814392%" r="55.0078303%" gradientTransform="translate(0.550405,0.588144),scale(1.000000,0.795827),rotate(180.000000),translate(-0.550405,-0.588144)" id="radialGradient-2">
            <stop stop-color="#987540" offset="0%"></stop>
            <stop stop-color="#5F582F" offset="100%"></stop>
        </radialGradient>
    </defs>
    <g id="logo" stroke="none" stroke-width="1" fill="none" fill-rule="evenodd">
        <g id="Group" transform="translate(11.000000, 0.000000)" fill-rule="nonzero">
            <g>
                <ellipse id="Oval" fill="url(#radialGradient-1)" cx="88.7975934" cy="197.140024" rx="88.7975934" ry="2.85997617"></ellipse>
                <g transform="translate(21.121491, 0.000000)" fill="url(#radialGradient-2)" id="Path">
                    <path d="M10.5332456,198.095016 L8.98659178,192.428396 C8.98659178,192.428396 16.0198665,173.675219 17.9731836,171.135241 C19.9265006,168.595262 25.7881184,165.208623 25.7881184,165.208623 C25.7881184,165.208623 32.2680644,161.528654 35.7830351,157.785352 C39.2996725,154.04205 39.9496671,152.673728 46.7879434,149.352089 C53.6262198,146.03045 56.5561954,143.198807 60.1694986,137.14219 C60.1694986,137.14219 59.4128382,147.832101 43.4696378,158.318681 C43.0013083,158.627011 42.7879768,159.20534 42.9429755,159.743669 C44.1396322,163.918634 49.3679219,181.320156 55.8712011,190.475079 L56.2628645,195.555037 L67.5927701,195.555037 L62.1228156,189.108424 C62.1228156,189.108424 55.7378689,178.593512 54.5678786,165.663619 C54.5245456,165.188623 54.7545437,164.731961 55.1578737,164.476963 C58.2861809,162.491979 71.8560679,153.528721 78.6443446,143.200473 C78.6443446,143.200473 89.6675861,149.25709 101.194157,147.302106 C101.194157,147.302106 98.4591795,143.982133 98.0675161,138.120516 C98.0675161,138.120516 99.9558337,144.307131 103.537471,148.148765 C107.117441,151.992067 110.440746,164.103632 110.440746,164.103632 C110.440746,164.103632 115.747369,180.806827 114.477379,189.401755 L113.695719,190.866743 L112.719061,195.846701 L119.760669,195.846701 L119.459005,190.963409 L118.480679,189.303422 C118.480679,189.303422 119.360672,170.743577 117.99235,165.468621 L117.247356,146.685444 C117.222356,146.01045 117.56902,145.372122 118.159015,145.045458 C118.85401,144.660461 119.840668,144.35713 120.802327,144.917126 C121.378989,145.250456 121.690653,145.905451 121.64232,146.570445 C121.417322,149.703752 120.648995,160.906992 120.727327,166.836943 C120.727327,166.836943 122.485646,185.371789 122.288981,189.670086 L121.752319,190.963409 L121.263989,195.945034 L128.540595,195.945034 L126.860609,191.866734 C126.615612,191.271739 126.495613,190.631745 126.512279,189.988417 L126.975609,170.940242 C126.975609,170.940242 128.930592,162.246981 129.515587,159.805335 C130.102249,157.363689 133.128891,144.957125 133.128891,144.957125 C133.128891,144.957125 135.863868,139.780502 140.748827,134.212215 C145.63212,128.645595 147.782102,126.983942 148.368764,120.049 C148.78376,115.122374 148.167099,101.867484 147.773769,94.6008783 C147.61377,91.6375697 147.490438,89.6709194 147.490438,89.6709194 C147.490438,89.6709194 146.968775,83.3543054 145.992117,79.3826718 C145.172124,76.0493663 139.903834,68.4944292 138.230515,66.1527821 C137.900517,65.6911192 137.730519,65.1361239 137.747185,64.5694619 L137.747185,64.5611287 C137.770519,63.7361355 138.183848,62.9694753 138.863843,62.5011458 C141.228823,60.8794927 146.670444,56.2145315 146.773777,47.6046033 C146.773777,47.6046033 140.130499,49.0312581 132.968892,55.477871 C132.968892,55.477871 132.968892,54.1812152 135.63887,51.9012342 C141.317156,47.0546079 147.257106,42.4529796 151.368739,36.1330322 C153.963717,32.1430655 156.180365,28.2547645 157.090358,23.5131374 C157.95535,19.0065083 157.778685,14.3332139 156.82036,9.85825118 C156.792027,9.72325231 156.762027,9.58658678 156.730361,9.4515879 C155.997033,6.20328164 154.872043,3.05330789 153.547054,9.47382419e-15 C153.547054,9.47382419e-15 155.793702,9.66991942 154.718711,17.0931909 C154.718711,17.0931909 151.59207,6.25161457 139.382172,9.47382419e-15 C143.682136,3.81830151 147.9871,8.38826343 150.570412,13.559887 C152.39373,17.2131899 152.37873,22.0764827 151.898734,26.0631161 C151.483738,29.5214207 150.055416,32.6680611 147.9521,35.4280381 C146.83211,36.8980258 145.533787,38.514679 144.068799,39.6580028 C144.068799,39.6580028 141.073824,41.9696503 139.445505,38.4863459 C137.61552,34.5697119 136.628861,30.3430805 135.418872,26.2131149 C134.477213,23.001475 133.128891,19.9015008 131.372239,17.0498579 C130.482246,15.6065366 129.488921,14.2248815 128.390597,12.9315589 C127.325606,11.6765694 125.873951,10.7199107 124.907292,9.39992167 C125.365622,10.0482496 135.355539,24.283131 134.463879,35.0997075 C134.463879,35.0997075 131.20724,37.314689 119.487338,30.5430788 C119.569004,30.6547445 124.855626,37.8196848 134.83721,40.0013333 C134.83721,40.0013333 139.23384,41.7113191 137.572187,43.5663036 C135.912201,45.4212882 129.708919,51.1845735 129.708919,51.1845735 L127.16894,43.761302 L126.778944,53.5295539 C126.778944,53.5295539 121.112324,52.9445588 117.98735,53.9212173 C117.98735,53.9212173 116.42403,49.3112557 117.010692,44.4279631 L114.595712,50.202915 C114.595712,50.202915 115.64237,36.7313606 115.447371,29.3064224 C115.447371,29.3064224 123.652303,25.0097916 123.457305,12.8965592 C123.457305,12.8965592 122.675644,23.2498063 113.299056,27.158107 C113.299056,27.158107 105.679119,18.9531754 103.530804,8.40326331 C103.530804,8.40326331 102.749144,20.9064924 111.540737,30.283081 C111.742402,32.3730636 111.739069,34.5063791 111.602403,36.599695 C111.489071,38.3246806 111.269073,40.0629995 110.79241,41.7279856 C110.38908,43.1429738 109.700752,45.3412888 108.185765,45.8762844 C108.149099,45.8896176 108.112432,45.9012842 108.075766,45.9129507 C107.345772,46.1329489 106.560779,46.0612828 105.812452,45.9146174 C102.919142,45.3462888 100.327497,43.7096358 98.1475154,41.7229856 C94.275881,38.198015 91.525904,33.5080541 90.1042491,28.4714294 C88.6825943,23.4331381 88.564262,18.0615162 89.5259206,12.916559 C86.120949,22.6998108 87.2459396,33.959717 92.5175624,42.8763094 C89.4275881,43.0463079 86.442613,41.4963209 84.2109649,39.3513387 C81.9793168,37.2063566 80.3826635,34.5047125 78.8126766,31.8364014 C79.9126674,36.8263598 82.5243123,41.6729861 86.80261,44.4629628 C90.637578,46.962942 95.2825393,47.5646036 99.6491696,48.5812618 C103.55247,49.4895876 107.939101,50.4229131 111.390738,52.5428955 C111.689069,52.7262273 114.622378,54.9462088 114.150715,55.4178715 L112.894059,56.7428605 C112.357397,57.3095224 111.444071,57.2745227 110.957409,56.6661944 C109.499088,54.8512096 106.05745,51.6212365 99.8241681,51.2495729 C99.8241681,51.2495729 100.084166,57.8911842 107.899101,62.9711419 C107.899101,62.9711419 108.272431,68.2777644 102.900809,70.8677428 C97.5275206,73.4560545 97.3825218,74.3843801 98.1625153,75.60437 C98.9441755,76.8260264 102.069149,79.1210073 102.069149,79.1210073 L102.667478,80.8759927 C102.867476,81.4609878 103.450805,81.8226515 104.062466,81.7359855 C106.992442,81.3293223 115.185707,80.322664 117.339022,81.4659878 C120.612328,83.2059733 125.087291,88.8225931 126.323947,90.9075758 C126.225615,90.8242431 119.990667,85.4292881 117.729019,84.2676311 C117.729019,84.2676311 117.534021,91.4959042 106.464113,92.1475654 C95.394205,92.7992267 62.1828151,92.7992267 62.1828151,92.7992267 C62.1828151,92.7992267 20.2514979,92.6675611 27.8064349,120.277331 C27.8064349,120.277331 31.3230723,115.550704 32.6247281,111.467404 C32.6247281,111.467404 32.1897318,121.963984 32.2447313,130.918909 C32.2563979,132.920559 32.2913976,134.843876 32.3647303,136.557195 C32.5397288,140.74216 30.9897418,144.762127 28.4814293,148.063766 C26.39978,150.807077 23.5281373,152.627061 20.5781618,154.305381 C17.99485,155.773702 14.9332089,157.798685 14.2615478,160.911992 C13.3498888,165.143624 2.92997558,190.475079 2.92997558,190.475079 L2.63164474,190.983408 C2.1316489,191.143407 1.77831851,191.59007 1.7399855,192.115066 L0,198.095016 L10.5332456,198.095016 Z"></path>
                </g>
            </g>
        </g>
    </g>
</svg>