<?xml version="1.0" encoding="UTF-8"?>
<svg width="1000px" height="1000px" viewBox="0 0 1000 1000" version="1.1" xmlns="http://www.w3.org/2000/svg" xmlns:xlink="http://www.w3.org/1999/xlink">
    <title>node_2</title>
    <g id="node_2" stroke="none" stroke-width="1" fill="none" fill-rule="evenodd">
        <g id="6673" transform="translate(-27.000000, 171.000000)" fill-rule="nonzero">
            <rect id="Rectangle" fill="#FFFFFF" x="0" y="0" width="1054" height="658.75"></rect>
            <path d="M127.230975,595.529762 L407.921056,594.06075 L482.738587,594.037694 L507.52735,594.037694 L582.486513,594.014638 L924.960756,593.922413 C924.960756,593.922413 1003.29272,492.547375 919.618294,396.264475 C832.864213,296.4375 790.681156,377.72725 764.014956,237.205994 C696.888331,-116.499937 33.240525,89.366025 207.308625,390.355488 C269.985394,498.733038 83.9346312,441.128644 127.230975,595.529762 Z" id="Path" fill="#EBF3FA"></path>
            <path d="M451.9025,578.4879 C451.9025,578.4879 452.969675,590.822994 450.361025,592.107556 L416.992044,592.038387 C416.992044,592.038387 416.992044,588.187994 422.350975,587.331619 C427.709906,586.475244 437.126737,583.3363 438.720912,576.346963 C440.315088,569.357625 451.9025,578.4879 451.9025,578.4879 Z" id="Path" fill="#233862"></path>
            <path d="M547.668281,573.711963 C547.668281,573.711963 548.656406,590.839462 546.064225,592.107556 L512.695244,592.038387 C512.695244,592.038387 512.695244,588.187994 518.054175,587.331619 C523.413106,586.475244 532.829938,583.3363 534.424113,576.346963 C536.018288,569.357625 547.668281,573.711963 547.668281,573.711963 Z" id="Path" fill="#233862"></path>
            <path d="M548.804625,575.816669 C548.804625,575.816669 542.180894,579.232287 539.344975,579.851513 C536.192856,580.546494 530.277281,580.105131 530.277281,580.105131 C518.927019,549.677469 483.726713,425.987275 483.726713,425.987275 C482.198413,460.189575 476.022631,494.29965 469.6097,521.720119 C469.438425,522.455723 469.26715,523.18474 469.095875,523.907169 L469.095875,523.907169 C468.941069,524.565919 468.7665,525.224669 468.624869,525.86695 C468.624869,525.899887 468.624869,525.926238 468.624869,525.955881 C460.838444,558.313681 453.032256,580.348869 453.032256,580.348869 C453.032256,580.348869 451.016481,582.898231 445.403931,581.732244 C438.971238,580.414744 436.840181,577.572238 436.840181,577.572238 C441.000188,445.776125 443.325575,371.459244 443.325575,371.459244 C443.325575,371.459244 499.039356,341.360956 514.174138,367.088437 C529.308919,392.815919 548.804625,575.816669 548.804625,575.816669 Z" id="Path" fill="#2A4E96"></path>
            <path d="M526.34125,384.871394 C519.118056,359.048394 517.932306,334.529719 517.9883,314.230338 C518.064056,285.337562 520.659531,264.988775 511.964031,261.559981 C511.964031,261.559981 485.100206,253.7505 466.609094,250.308531 C463.664481,248.688006 460.393788,246.988431 457.913594,245.980544 C452.077069,243.612337 429.313963,210.523325 425.453688,202.601856 C421.593412,194.680388 415.206831,160.165181 415.206831,160.165181 L406.336763,162.991219 C406.336763,162.991219 403.672119,201.7356 404.950094,211.834238 C406.228069,221.932875 434.412688,265.351088 436.75125,269.145488 L436.75125,269.145488 C446.784013,305.821394 436.75125,365.504144 441.33615,378.810894 C443.694475,385.655306 487.44865,398.197906 511.381038,396.6202 C512.573375,396.54115 513.7196,396.425869 514.806538,396.290825 L514.806538,396.290825 C520.471788,395.503619 524.592269,393.69535 526.100806,390.520175 C526.861662,388.965525 526.980238,387.097969 526.34125,384.871394 Z" id="Path" fill="#AEC3FF"></path>
            <path d="M415.220006,160.165181 C415.220006,160.165181 420.233094,145.600219 416.56715,145.178619 C412.901206,144.757019 403.701763,144.799838 402.568713,147.260269 C401.435662,149.7207 406.349938,162.991219 406.349938,162.991219 L415.220006,160.165181 Z" id="Path" fill="#FFB27D"></path>
            <path d="M319.800069,196.445838 L290.212312,178.554187 C291.473878,176.468249 293.512567,174.969048 295.879708,174.386529 C298.24685,173.80401 300.748451,174.18591 302.833963,175.448181 C304.748706,176.603196 307.237173,175.988451 308.393813,174.074688 L316.400919,160.837106 L323.317794,165.026756 L315.310688,178.264338 C314.753785,179.183534 314.585276,180.286461 314.842302,181.330012 C315.099329,182.373563 315.76079,183.272069 316.680888,183.827481 C321.022303,186.454553 322.414008,192.102456 319.790188,196.445838 L319.800069,196.445838 Z" id="Path" fill="#ED7D2B"></path>
            <path d="M319.800069,196.445838 L300.129794,184.552106 C295.574538,180.751119 297.801112,177.4936 300.086975,176.933663 C302.454498,176.346898 304.958271,176.728628 307.043375,177.99425 C308.958119,179.149265 311.446586,178.53452 312.603225,176.620756 L320.610331,163.37 L323.327675,165.016875 L315.320569,178.254456 C314.763667,179.173652 314.595157,180.27658 314.852184,181.320131 C315.10921,182.363682 315.770671,183.262188 316.690769,183.8176 C321.032185,186.444672 322.423889,192.092575 319.800069,196.435956 L319.800069,196.445838 Z" id="Path" fill="#F99746"></path>
            <path d="M406.349937,110.192406 L382.404375,140.376331 C374.081069,154.1475 359.6775,160.735 345.89645,161.294938 L345.89645,161.294938 C341.306938,161.491927 336.71423,160.987674 332.276794,159.799575 C328.729425,158.831212 324.648469,160.741587 322.395544,164.447056 L321.927831,165.224381 C320.534575,167.530006 319.371881,169.443675 319.371881,169.443675 L314.32915,166.393662 C314.32915,166.393662 315.501725,164.447056 316.901569,162.134844 C319.358706,158.057181 319.226956,153.080325 316.529375,150.06325 C305.00125,137.171513 300.683144,115.844481 311.704031,97.6201625 L327.915869,62.7624063 L406.349937,110.192406 Z" id="Path" fill="#F99746"></path>
            <path d="M306.187,122.115781 C308.143488,110.808337 302.675863,104.658906 296.88545,98.1241062 C292.254438,92.9068062 287.468619,87.5149375 286.437675,79.484775 C285.294744,70.59165 289.441575,61.4943125 296.7537,56.8698875 C302.31355,53.3554562 308.456394,53.2467625 313.614406,56.5405125 C320.939706,61.2439875 323.663638,70.3512062 321.489763,82.8905125 C320.42837,88.6952912 318.686017,94.3546214 316.298813,99.7512187 L311.704031,97.6201625 C311.832488,97.3401937 324.487075,69.5607062 310.8773,60.8158 C306.183706,57.7954312 301.7075,59.7321562 299.461163,61.145175 C293.861788,64.6793687 290.568038,71.9519687 291.463938,78.8326125 C292.293963,85.308125 296.365038,89.893025 300.686438,94.7480125 C306.723881,101.549606 313.565,109.256981 311.1935,122.972156 L306.187,122.115781 Z" id="Path" fill="#ED7D2B"></path>
            <path d="M363.270981,156.637575 C372.3782,149.651531 380.375425,151.634369 388.840362,153.732488 C395.612312,155.409006 402.611531,157.144813 410.200331,154.328656 C418.615862,151.202888 424.738944,143.311063 425.437219,134.691319 C425.964219,128.133463 423.210644,122.642781 417.887944,119.609238 C410.312319,115.3076 400.987712,117.12575 390.905544,124.879238 C386.258976,128.515966 382.057837,132.688359 378.389294,137.30985 L382.410962,140.389506 C382.598706,140.145769 401.323675,116.035519 415.387987,124.026156 C420.242975,126.783025 420.605287,131.6446 420.391194,134.296069 C419.857606,140.883569 414.943331,147.177925 408.441469,149.592244 C402.318387,151.864931 396.366581,150.389331 390.065637,148.828094 C381.241681,146.641044 371.235269,144.16085 360.194619,152.629081 L363.270981,156.637575 Z" id="Path" fill="#F99746"></path>
            <path d="M345.889862,161.294937 C341.300351,161.491927 336.707643,160.987674 332.270206,159.799575 C328.722837,158.831212 324.641881,160.741588 322.388956,164.447056 L321.921244,165.224381 C320.159087,166.133456 318.825119,167.279681 318.196012,168.735519 L314.322563,166.393663 C314.322563,166.393663 315.495137,164.447056 316.894981,162.134844 C319.352119,158.057181 319.220369,153.080325 316.522787,150.06325 C304.994663,137.171513 300.676556,115.844481 311.697444,97.6201625 L327.909281,62.7624063 L340.876775,70.6015313 C340.876775,70.6015313 288.239356,141.937569 345.889862,161.294937 Z" id="Path" fill="#ED7D2B"></path>
            <path d="M322.553644,172.510156 L309.635556,164.6875 C307.880532,163.618795 307.318331,161.333195 308.377344,159.572306 L308.377344,159.572306 C309.446099,157.817675 311.730502,157.254297 313.492538,158.3108 L326.410625,166.133456 C328.165649,167.202161 328.727851,169.487761 327.668838,171.24865 L327.668838,171.24865 C326.601234,173.004851 324.315389,173.568585 322.553644,172.510156 L322.553644,172.510156 Z" id="Path" fill="#F99746"></path>
            <path d="M326.506144,129.115 L327.892812,126.809375 C334.480312,130.360037 335.310337,129.938437 338.007919,125.491875 L351.571581,103.061437 C353.481956,99.9027312 352.516887,98.9804812 350.161856,97.1326875 L348.47875,95.6834375 L349.713906,93.6380188 C354.822512,95.9667 360.912656,97.9495375 365.34275,98.8586125 L346.239,130.45885 C343.465662,135.04375 343.4986,135.827663 349.631562,139.958025 L348.244894,142.26365 L326.506144,129.115 Z" id="Path" fill="#FFFFFF"></path>
            <path d="M402.568713,147.260269 C402.568713,147.260269 402.094413,152.273356 403.701763,153.218662 C405.309113,154.163969 405.878931,147.260269 405.878931,147.260269 C405.878931,147.260269 405.971156,152.922225 407.196431,153.307594 C408.421706,153.692963 409.172681,146.785969 409.172681,146.785969 C409.172681,146.785969 409.301138,152.273356 410.134456,152.082319 C410.967775,151.891281 411.537594,146.785969 411.537594,146.785969 C411.537594,146.785969 411.916375,150.768113 413.049425,150.053369 C414.182475,149.338625 415.262825,145.066631 415.262825,145.066631 L402.568713,147.260269 Z" id="Path" fill="#FFB27D"></path>
            <path d="M415.220006,160.165181 C415.220006,160.165181 418.6488,157.474187 419.403069,155.01705 C420.157338,152.559912 422.383913,148.42955 421.201456,147.922312 C420.019,147.415075 416.56715,152.744362 416.56715,152.744362 L415.220006,160.165181 Z" id="Path" fill="#FFB27D"></path>
            <path d="M474.629375,246.34615 L474.201188,248.5859 C474.201188,248.5859 472.205175,255.466544 480.624,258.193769 C489.042825,260.920994 496.134269,262.185794 496.970881,256.737931 C497.020288,252.403356 496.914888,245.6347 497.5407,242.163087 C497.798727,240.755892 498.178947,239.373872 498.677044,238.032725 L482.040313,234.4096 L476.96135,234.238325 L474.629375,246.34615 Z" id="Path" fill="#FFB27D"></path>
            <path d="M476.964644,234.22515 L475.416581,242.39365 C491.226581,246.580006 498.143456,239.524794 498.680338,238.032725 L482.043606,234.4096 L476.964644,234.22515 Z" id="Path" fill="#E2915A"></path>
            <path d="M501.117712,234.643456 C496.216612,244.60705 482.748469,240.453631 477.073337,238.148006 C475.475869,237.489256 474.497625,237.001781 474.497625,237.001781 C472.778287,235.984012 472.5609,232.762725 473.157069,228.790462 C474.329644,220.928281 478.667512,210.118194 480.732694,207.628119 C483.868344,203.879831 488.805675,200.26 501.526138,207.440375 C514.2466,214.62075 507.402187,221.880175 501.117712,234.643456 Z" id="Path" fill="#FFB27D"></path>
            <path d="M479.365788,196.445837 C484.031395,197.19975 488.784154,197.244168 493.463037,196.577587 C499.918788,195.691569 506.407475,200.483975 508.416663,202.387762 C508.474149,201.854096 508.413424,201.314317 508.2388,200.806762 C508.2388,200.806762 509.088588,201.854175 508.95025,202.9477 C509.035888,203.059687 509.068825,203.128856 509.035888,203.138738 C509.00295,203.148619 510.297394,203.257313 510.969319,203.820544 C510.969319,203.820544 510.4522,203.589981 510.16235,203.883125 C510.129517,203.913605 510.09162,203.938126 510.050363,203.955588 C517.810438,210.813175 514.661613,225.233213 510.84745,227.703525 C506.26255,230.6679 498.390488,238.866044 498.390488,238.866044 C498.671842,236.681497 499.308234,234.557596 500.274513,232.578275 C501.881863,229.284525 498.881256,228.438031 495.531513,225.79315 C492.181769,223.148269 496.585513,219.614075 494.022975,215.994244 C491.460438,212.374413 478.848669,210.546381 479.583175,208.5339 C475.528569,205.622225 479.240625,196.910256 479.365788,196.445837 Z" id="Path" fill="#233862"></path>
            <path d="M481.38815,230.970925 C481.38815,230.970925 480.568006,232.202788 477.284137,230.74695 C477.284137,230.74695 474.530562,229.528263 475.166256,228.075719 C475.166256,228.075719 478.292025,228.0329 481.38815,230.970925 Z" id="Path" fill="#FFFFFF"></path>
            <path d="M477.692563,264.649519 C477.692563,264.649519 470.116938,315.001075 413.349156,349.957644 L408.052806,365.346044 L428.536638,365.346044 C428.536638,365.346044 479.372375,322.715037 482.778113,266.088887 L477.692563,264.649519 Z" id="Path" fill="#ED7D2B"></path>
            <polygon id="Path" fill="#DB6516" points="477.692563 264.649519 477.692563 257.0179 487.046813 259.666075 482.778113 266.098769"></polygon>
            <path d="M474.629375,246.34615 L469.155163,251.026569 C469.155163,251.026569 467.646625,257.57125 471.335625,264.649519 L482.369687,258.341987 C482.369687,258.341987 475.851356,255.193162 474.629375,246.34615 Z" id="Path" fill="#9DB0F4"></path>
            <path d="M482.369687,258.341988 C482.369687,258.341988 483.463212,264.270738 486.322187,267.198881 C486.322187,267.198881 498.7528,265.025006 502.20465,259.066613 L497.026875,250.93105 C497.026875,250.93105 495.768663,256.481019 482.369687,258.341988 Z" id="Path" fill="#9DB0F4"></path>
            <path d="M556.854592,388.84695 C556.854592,388.84695 556.877606,400.121456 555.840075,402.351325 C554.802544,404.581194 550.148475,411.9032 548.004244,413.45785 C545.860013,415.0125 548.468663,404.429681 547.793444,402.492956 C547.118225,400.556231 546.294788,406.313706 545.303369,406.550856 C544.31195,406.788006 544.041863,401.712337 543.8113,399.881012 C543.580738,398.049687 548.040475,392.993781 549.367856,388.89965 C550.695238,384.805519 556.854592,388.84695 556.854592,388.84695 Z" id="Path" fill="#FFB27D"></path>
            <path d="M511.802638,261.556688 C511.802638,261.556688 522.7313,264.521063 530.138944,280.835006 C537.9089,297.929569 558.69905,335.896625 559.453319,341.136981 C560.207588,346.377338 558.076531,395.312581 558.076531,395.312581 C558.076531,395.312581 548.979194,395.665013 546.169625,391.360081 C546.169625,391.360081 543.001038,348.3997 541.601194,346.064431 C540.20135,343.729163 504.381819,301.032281 507.412069,290.199138 C510.442319,279.365994 511.802638,261.556688 511.802638,261.556688 Z" id="Path" fill="#AEC3FF"></path>
            <path d="M526.123862,390.507 C523.4164,392.832387 519.757044,394.85475 514.829594,396.27765 L514.829594,396.27765 C513.719535,396.606544 512.556484,396.718375 511.404094,396.607025 C491.397856,394.545138 494.474219,316.812637 504.157844,311.071631 C514.368469,305.017719 517.991594,314.210575 517.991594,314.210575 C517.9356,334.509956 519.12135,359.028631 526.344544,384.851631 C526.980237,387.097969 526.861662,388.965525 526.123862,390.507 Z" id="Path" fill="#9DB0F4"></path>
            <path d="M468.624869,525.876831 C468.759913,525.270781 468.914719,524.618619 469.095875,523.91705 C468.941069,524.5758 468.782969,525.231256 468.624869,525.876831 Z" id="Path" fill="#233862"></path>
            <path d="M469.6097,521.73 C475.732781,492.745 469.132106,415.111312 472.080013,413.635712 C475.106969,412.123881 483.726713,425.997156 483.726713,425.997156 C482.205,460.189575 476.022631,494.29965 469.6097,521.73 Z" id="Path" fill="#233862"></path>
            <path d="M259.955925,188.666 C259.955925,188.666 264.046762,194.265375 263.608694,200.665131 C263.279319,205.411425 259.053437,210.217006 258.766881,210.401456 L265.443312,213.962 C265.443312,213.962 270.383938,205.174275 268.737063,197.822625 C268.226531,195.572994 265.858325,191.972925 264.125812,190.365575 C262.98633,189.314661 261.50538,188.711051 259.955925,188.666 Z" id="Path" fill="#6BB7BF"></path>
            <path d="M246.306625,189.262169 L242.090625,179.914506 C242.090625,179.914506 261.823481,180.573256 268.361575,196.659931 C268.3484,196.659931 254.541,186.811619 246.306625,189.262169 Z" id="Path" fill="#86D1CD"></path>
            <path d="M171.769062,427.05445 C171.769062,427.05445 167.065587,423.503787 165.840312,418.197556 C164.937825,414.245056 167.197338,409.304431 167.385081,409.093631 L161.080844,407.835419 C161.080844,407.835419 159.213288,416.201544 162.375288,421.761394 C163.34365,423.464262 166.153219,425.809412 167.974662,426.702019 C169.155713,427.272738 170.503103,427.397886 171.769062,427.05445 Z" id="Path" fill="#6BB7BF"></path>
            <path d="M182.720781,423.220525 L188.4552,429.778381 C188.4552,429.778381 172.246656,434.083313 162.984631,422.617769 C162.984631,422.617769 176.627344,427.232312 182.720781,423.220525 Z" id="Path" fill="#86D1CD"></path>
            <path d="M893.017969,457.600687 C893.017969,457.600687 892.60625,451.438081 904.177194,448.453944 C909.361556,447.116681 920.909444,449.494769 913.587438,460.854913 C905.975581,472.669594 899.187163,468.404188 899.187163,468.404188 C899.187163,468.404188 915.066331,455.976869 908.712688,450.288563 C901.700294,444.030438 899.006006,456.444581 899.006006,456.444581 C896.952675,456.424641 894.916299,456.817803 893.017969,457.600687 L893.017969,457.600687 Z" id="Path" fill="#F1A34F"></path>
            <path d="M897.125275,469.115638 C897.125275,469.115638 892.797288,466.773781 894.513331,461.57295 L900.731931,462.6533 C900.731931,462.6533 898.340669,468.282319 904.190369,468.964125 C904.190369,468.964125 898.56135,470.301388 897.125275,469.115638 Z" id="Path" fill="#DB7714"></path>
            <path d="M491.361625,138.545006 C491.361625,138.545006 497.827256,129.233575 507.741444,135.827662 L513.778887,130.053719 C513.778887,130.053719 508.136694,125.771844 495.126381,133.452869 C486.612038,138.475837 491.361625,138.545006 491.361625,138.545006 Z" id="Path" fill="#5685D8"></path>
            <path d="M484.981631,147.671988 C484.981631,147.671988 483.700363,136.983769 501.592013,130.317219 C501.592013,130.317219 495.126381,133.452869 493.130369,144.104856 L484.981631,147.671988 Z" id="Path" fill="#739AF0"></path>
            <path d="M556.85455,90.9898438 C556.85455,90.9898438 562.12455,87.6499813 562.697663,83.6151375 C562.697663,83.6151375 567.845794,83.8951063 568.955788,85.5650375 C568.955788,85.5650375 566.590875,92.2414688 563.807656,93.4930938 C563.81095,93.4930938 557.549531,93.9114 556.85455,90.9898438 Z" id="Path" fill="#F99746"></path>
            <path d="M386.722481,471.958144 C386.722481,471.958144 381.083581,468.3976 380.490706,464.092669 C380.490706,464.092669 374.996731,464.389106 373.810981,466.171025 C373.810981,466.171025 376.333994,473.295406 379.301663,474.629375 C379.301663,474.629375 385.981387,475.074031 386.722481,471.958144 Z" id="Path" fill="#F99746"></path>
            <path d="M618.236875,196.188925 C618.236875,196.188925 623.902125,192.608619 624.495,188.283925 C624.495,188.283925 630.008737,188.580362 631.201075,190.372163 C631.201075,190.372163 628.668181,197.526188 625.687338,198.866744 C625.677456,198.870037 618.968088,199.317987 618.236875,196.188925 Z" id="Path" fill="#86D1CD"></path>
            <path d="M71.96185,592.107556 L979.505256,592.107556 C980.121927,592.107556 980.621837,592.607467 980.621837,593.224137 L980.621837,593.817012 C980.621837,594.433683 980.121927,594.933594 979.505256,594.933594 L71.96185,594.933594 C71.3469983,594.933594 70.8485625,594.435158 70.8485625,593.820306 L70.8485625,593.227431 C70.8485625,592.61258 71.3469983,592.114144 71.96185,592.114144 L71.96185,592.107556 Z" id="Path" fill="#2E3552"></path>
        </g>
    </g>
</svg>